<svg width="20" height="20" viewBox="0 0 20 20" fill="none" xmlns="http://www.w3.org/2000/svg">
<path fill-rule="evenodd" clip-rule="evenodd" d="M10.0001 18.842C14.8834 18.842 18.842 14.8834 18.842 10.0001C18.842 5.11686 14.8834 1.1582 10.0001 1.1582C5.11686 1.1582 1.1582 5.11686 1.1582 10.0001C1.1582 14.8834 5.11686 18.842 10.0001 18.842ZM10.0001 19.4287C15.2074 19.4287 19.4287 15.2074 19.4287 10.0001C19.4287 4.79285 15.2074 0.571533 10.0001 0.571533C4.79285 0.571533 0.571533 4.79285 0.571533 10.0001C0.571533 15.2074 4.79285 19.4287 10.0001 19.4287Z" fill="white" fill-opacity="0.35"/>
<path d="M4.32424 10.3812C4.32424 12.6974 3.61312 14.3177 3.25757 14.8383C6.27471 18.4954 9.94963 18.5716 11.4099 18.1526C11.3465 17.7081 11.4099 16.4231 12.1719 14.8383C13.1242 12.8574 16.3623 10.7621 16.3242 8.97164C16.2938 7.53925 13.6195 6.74941 12.2861 6.53354C11.829 5.37545 10.7242 5.56846 10.229 5.80973L9.65757 5.69545C6.11471 5.20021 4.32424 7.48592 4.32424 10.3812Z" fill="white" fill-opacity="0.35"/>
<path d="M10.5716 8.05729C10.5716 8.98303 9.82116 9.73348 8.89543 9.73348C7.96969 9.73348 7.21924 8.98303 7.21924 8.05729C7.21924 7.13156 7.96969 6.3811 8.89543 6.3811C9.82116 6.3811 10.5716 7.13156 10.5716 8.05729Z" fill="#070408"/>
<path d="M10.0384 8.05716C10.0384 8.68835 9.52673 9.20002 8.89554 9.20002C8.26436 9.20002 7.75269 8.68835 7.75269 8.05716C7.75269 7.42598 8.26436 6.91431 8.89554 6.91431C9.52673 6.91431 10.0384 7.42598 10.0384 8.05716Z" fill="#070408"/>
<path d="M14.7619 9.54305C14.7619 9.73241 14.6084 9.88591 14.419 9.88591C14.2297 9.88591 14.0762 9.73241 14.0762 9.54305C14.0762 9.3537 14.2297 9.2002 14.419 9.2002C14.6084 9.2002 14.7619 9.3537 14.7619 9.54305Z" fill="#070408"/>
<path d="M15.6002 10.6477C14.5209 11.1683 11.9126 12.0344 10.1145 11.3334C10.7621 11.8668 12.7659 12.4763 15.6002 10.6477Z" fill="#070408"/>
</svg>
