<svg width="32" height="32" viewBox="0 0 32 32" fill="none" xmlns="http://www.w3.org/2000/svg">
<rect width="32" height="32" rx="16" fill="#F6EC98"/>
<path fill-rule="evenodd" clip-rule="evenodd" d="M16 26.3156C21.6971 26.3156 26.3156 21.6971 26.3156 16C26.3156 10.3029 21.6971 5.68444 16 5.68444C10.3029 5.68444 5.68444 10.3029 5.68444 16C5.68444 21.6971 10.3029 26.3156 16 26.3156ZM16 27C22.0751 27 27 22.0751 27 16C27 9.92487 22.0751 5 16 5C9.92487 5 5 9.92487 5 16C5 22.0751 9.92487 27 16 27Z" fill="#9AC65A"/>
<path d="M8.43199 16.5082C8.43199 19.5965 7.48384 21.7569 7.00977 22.4511C11.0326 27.3273 15.9325 27.4289 17.8796 26.8701C17.7949 26.2775 17.8796 24.5641 18.8955 22.4511C20.1653 19.8098 24.4828 17.0161 24.432 14.6288C24.3914 12.719 20.8256 11.6659 19.0479 11.3781C18.4383 9.83393 16.9653 10.0913 16.305 10.413L15.5431 10.2606C10.8193 9.60028 8.43199 12.6479 8.43199 16.5082Z" fill="#9AC65A"/>
<path d="M16.7618 13.4097C16.7618 14.644 15.7612 15.6446 14.5269 15.6446C13.2926 15.6446 12.292 14.644 12.292 13.4097C12.292 12.1754 13.2926 11.1748 14.5269 11.1748C15.7612 11.1748 16.7618 12.1754 16.7618 13.4097Z" fill="white"/>
<path d="M16.0505 13.4096C16.0505 14.2511 15.3683 14.9334 14.5267 14.9334C13.6852 14.9334 13.0029 14.2511 13.0029 13.4096C13.0029 12.568 13.6852 11.8857 14.5267 11.8857C15.3683 11.8857 16.0505 12.568 16.0505 13.4096Z" fill="#070408"/>
<path d="M22.3489 15.3907C22.3489 15.6432 22.1442 15.8479 21.8917 15.8479C21.6392 15.8479 21.4346 15.6432 21.4346 15.3907C21.4346 15.1383 21.6392 14.9336 21.8917 14.9336C22.1442 14.9336 22.3489 15.1383 22.3489 15.3907Z" fill="#070408"/>
<path d="M23.4666 16.8633C22.0275 17.5575 18.5498 18.7122 16.1523 17.7776C17.0158 18.4887 19.6876 19.3014 23.4666 16.8633Z" fill="#070408"/>
</svg>
