<svg width="32" height="32" viewBox="0 0 32 32" fill="none" xmlns="http://www.w3.org/2000/svg">
<path fill-rule="evenodd" clip-rule="evenodd" d="M7.4097 21.7132C7.88149 20.6756 8.43199 18.8611 8.43199 16.508C8.43199 12.6477 10.8193 9.60003 15.5431 10.2604L16.305 10.4127C16.9653 10.091 18.4383 9.83368 19.0479 11.3778C20.8256 11.6656 24.3914 12.7188 24.432 14.6286C24.4614 16.0095 23.0291 17.5265 21.5705 19.0712C20.5076 20.1969 19.4308 21.3374 18.8955 22.4508C18.1572 23.9864 17.9108 25.3109 17.8637 26.1476C22.6712 25.2704 26.3156 21.0608 26.3156 16C26.3156 10.3029 21.6971 5.68444 16 5.68444C10.3029 5.68444 5.68444 10.3029 5.68444 16C5.68444 18.113 6.31972 20.0775 7.4097 21.7132ZM7.04781 22.3935C5.75868 20.5917 5 18.3844 5 16C5 9.92487 9.92487 5 16 5C22.0751 5 27 9.92487 27 16C27 21.4357 23.0573 25.9505 17.8757 26.8407C17.877 26.8507 17.8783 26.8604 17.8796 26.8699C16.606 27.2354 14.0689 27.3183 11.3402 25.9672C10.0206 25.3492 8.84391 24.4768 7.87317 23.4132C7.5819 23.1153 7.29365 22.7949 7.00977 22.4508C7.02213 22.4327 7.03482 22.4136 7.04781 22.3935Z" fill="white" fill-opacity="0.35"/>
<path d="M16.7618 13.4097C16.7618 14.644 15.7612 15.6446 14.5269 15.6446C13.2926 15.6446 12.292 14.644 12.292 13.4097C12.292 12.1754 13.2926 11.1748 14.5269 11.1748C15.7612 11.1748 16.7618 12.1754 16.7618 13.4097Z" fill="#070408"/>
<path d="M16.0505 13.4096C16.0505 14.2511 15.3683 14.9334 14.5267 14.9334C13.6852 14.9334 13.0029 14.2511 13.0029 13.4096C13.0029 12.568 13.6852 11.8857 14.5267 11.8857C15.3683 11.8857 16.0505 12.568 16.0505 13.4096Z" fill="white" fill-opacity="0.35"/>
<path d="M22.3489 15.3907C22.3489 15.6432 22.1442 15.8479 21.8917 15.8479C21.6392 15.8479 21.4346 15.6432 21.4346 15.3907C21.4346 15.1383 21.6392 14.9336 21.8917 14.9336C22.1442 14.9336 22.3489 15.1383 22.3489 15.3907Z" fill="#070408"/>
<path d="M23.4666 16.8633C22.0275 17.5575 18.5498 18.7122 16.1523 17.7776C17.0158 18.4887 19.6876 19.3014 23.4666 16.8633Z" fill="#070408"/>
</svg>
