<svg width="18" height="12" viewBox="0 0 18 12" fill="none" xmlns="http://www.w3.org/2000/svg">
<path d="M14.7271 1.00498C13.659 0.535494 12.5169 0.194272 11.323 0C11.1763 0.249066 11.005 0.584059 10.8869 0.850559C9.61771 0.671234 8.36014 0.671234 7.11429 0.850559C6.99621 0.584059 6.82097 0.249066 6.67307 0C5.4778 0.194272 4.33445 0.536739 3.26638 1.00747C1.11207 4.06601 0.528067 7.0486 0.820068 9.9888C2.24892 10.9913 3.63365 11.6002 4.99502 11.9987C5.33115 11.5641 5.63093 11.1021 5.8892 10.6152C5.39734 10.4396 4.92624 10.2229 4.4811 9.97135C4.5992 9.8892 4.7147 9.80325 4.82631 9.71485C7.54129 10.9078 10.4911 10.9078 13.1737 9.71485C13.2865 9.80325 13.402 9.8892 13.5188 9.97135C13.0724 10.2241 12.6 10.4408 12.1081 10.6164C12.3664 11.1021 12.6649 11.5654 13.0023 12C14.365 11.6015 15.751 10.9925 17.1799 9.9888C17.5225 6.58035 16.5946 3.62516 14.7271 1.00498ZM6.25906 8.1806C5.44406 8.1806 4.7757 7.46575 4.7757 6.59529C4.7757 5.72479 5.42978 5.00874 6.25906 5.00874C7.08835 5.00874 7.75668 5.72354 7.74241 6.59529C7.74374 7.46575 7.08835 8.1806 6.25906 8.1806ZM11.7409 8.1806C10.9259 8.1806 10.2575 7.46575 10.2575 6.59529C10.2575 5.72479 10.9116 5.00874 11.7409 5.00874C12.5701 5.00874 13.2385 5.72354 13.2243 6.59529C13.2243 7.46575 12.5701 8.1806 11.7409 8.1806Z" fill="white" fill-opacity="0.45"/>
</svg>
