<svg width="18" height="10" viewBox="0 0 18 10" fill="none" xmlns="http://www.w3.org/2000/svg">
<path d="M5.49398 0.432129C7.99953 0.432129 10.0305 2.4773 10.0305 4.99997C10.0305 7.52263 7.99938 9.56765 5.49398 9.56765C2.98857 9.56765 0.957275 7.52263 0.957275 4.99997C0.957275 2.4773 2.98842 0.432129 5.49398 0.432129ZM12.7388 0.699701C13.9915 0.699701 15.0071 2.6248 15.0071 4.99997H15.0073C15.0073 7.37451 13.9917 9.30023 12.7389 9.30023C11.4861 9.30023 10.4706 7.37451 10.4706 4.99997C10.4706 2.62542 11.486 0.699701 12.7388 0.699701ZM16.2451 1.14761C16.6856 1.14761 17.0429 2.87234 17.0429 4.99997C17.0429 7.12698 16.6858 8.85232 16.2451 8.85232C15.8044 8.85232 15.4475 7.12744 15.4475 4.99997C15.4475 2.87249 15.8046 1.14761 16.2451 1.14761Z" fill="white" fill-opacity="0.35"/>
</svg>
