<svg width="32" height="32" viewBox="0 0 32 32" fill="none" xmlns="http://www.w3.org/2000/svg">
<rect width="32" height="32" rx="16" fill="black"/>
<path d="M11.3253 9.90918C14.666 9.90918 17.374 12.6361 17.374 15.9996C17.374 19.3632 14.6658 22.0899 11.3253 22.0899C7.98476 22.0899 5.27637 19.3632 5.27637 15.9996C5.27637 12.6361 7.98456 9.90918 11.3253 9.90918ZM20.985 10.2659C22.6554 10.2659 24.0095 12.8327 24.0095 15.9996H24.0097C24.0097 19.1657 22.6556 21.7333 20.9852 21.7333C19.3149 21.7333 17.9608 19.1657 17.9608 15.9996C17.9608 12.8336 19.3146 10.2659 20.985 10.2659ZM25.6601 10.8631C26.2475 10.8631 26.7238 13.1628 26.7238 15.9996C26.7238 18.8356 26.2477 21.1361 25.6601 21.1361C25.0726 21.1361 24.5966 18.8363 24.5966 15.9996C24.5966 13.163 25.0728 10.8631 25.6601 10.8631Z" fill="white"/>
</svg>
