<svg width="32" height="32" viewBox="0 0 32 32" fill="none" xmlns="http://www.w3.org/2000/svg">
<g clip-path="url(#clip0_1168_15117)">
<path d="M11.3252 9.90967C14.6659 9.90967 17.3739 12.6366 17.3739 16.0001C17.3739 19.3637 14.6657 22.0904 11.3252 22.0904C7.98464 22.0904 5.27625 19.3637 5.27625 16.0001C5.27625 12.6366 7.98444 9.90967 11.3252 9.90967ZM20.9849 10.2664C22.6553 10.2664 24.0094 12.8332 24.0094 16.0001H24.0096C24.0096 19.1662 22.6555 21.7338 20.9851 21.7338C19.3147 21.7338 17.9606 19.1662 17.9606 16.0001C17.9606 12.8341 19.3145 10.2664 20.9849 10.2664ZM25.66 10.8636C26.2474 10.8636 26.7237 13.1633 26.7237 16.0001C26.7237 18.8361 26.2476 21.1366 25.66 21.1366C25.0725 21.1366 24.5965 18.8367 24.5965 16.0001C24.5965 13.1635 25.0727 10.8636 25.66 10.8636Z" fill="white" fill-opacity="0.35"/>
</g>
<defs>
<clipPath id="clip0_1168_15117">
<rect width="32" height="32" rx="16" fill="white"/>
</clipPath>
</defs>
</svg>
