<svg width="169" height="47" viewBox="0 0 169 47" fill="none" xmlns="http://www.w3.org/2000/svg">
<g clip-path="url(#clip0_83_1842)">
<path d="M23.8042 36.6892V29.803H16.3882C14.3916 29.803 12.5172 30.8624 11.4578 32.6145L9.05371 36.6892H23.8042Z" fill="white"/>
<path d="M0.211914 10.1631V17.0493H19.7298L23.8045 10.1631H0.211914Z" fill="white"/>
<path d="M9.82752 21.0834L0.251953 36.6895H8.44211L19.9328 18.0273H15.4099C13.0873 18.0273 10.9684 19.209 9.82752 21.0834Z" fill="white"/>
<path d="M40.552 30.618C36.5588 30.618 33.625 27.6842 33.625 23.691C33.625 19.7793 36.5995 16.764 40.5928 16.764C44.586 16.764 47.5605 19.7793 47.5605 23.691C47.5605 27.6027 44.5452 30.618 40.552 30.618ZM40.5928 28.1732C43.1191 28.1732 44.9527 26.2581 44.9527 23.691C44.9527 21.1239 43.1598 19.2088 40.5928 19.2088C38.0257 19.2088 36.2328 21.1647 36.2328 23.691C36.2328 26.2581 38.0257 28.1732 40.5928 28.1732ZM50.2091 34.7334V20.3497H52.6131V21.6129H52.7354C52.9799 21.2054 53.917 20.1052 55.7099 20.1052C58.4807 20.1052 60.3958 22.1833 60.3958 25.3209C60.3958 28.4584 58.5215 30.618 55.7914 30.618C54.0393 30.618 53.1021 29.6401 52.7761 29.0696H52.6539V34.7334H50.2091ZM55.3024 28.3362C56.8916 28.3362 57.951 27.1137 57.951 25.3209C57.951 23.4873 56.8916 22.3056 55.2617 22.3056C53.6318 22.3056 52.6131 23.6095 52.6131 25.3209C52.6131 27.1952 53.7541 28.3362 55.3024 28.3362ZM67.4451 30.618C64.5113 30.618 62.4332 28.4176 62.4332 25.4024C62.4332 22.2241 64.5113 20.1052 67.4451 20.1052C70.6233 20.1052 72.3755 22.4686 72.3755 25.3209V26.0951H64.8373C64.9188 27.6027 65.9374 28.6621 67.5266 28.6621C68.749 28.6621 69.6454 28.0917 70.0121 27.2767H72.294C71.805 29.2733 70.0121 30.618 67.4451 30.618ZM64.878 24.3022H70.0529C69.9306 22.9575 68.912 22.0611 67.4858 22.0611C66.1004 22.0611 65.041 23.039 64.878 24.3022ZM75.024 30.3328V20.309H77.3466V21.5314H77.4688C77.8763 20.7979 78.8543 20.0645 80.2804 20.0645C82.5215 20.0645 83.8661 21.6536 83.8661 23.7725V30.3328H81.4213V24.4244C81.4213 23.202 80.6471 22.3871 79.5062 22.3871C78.3245 22.3871 77.4688 23.3243 77.4688 24.5874V30.3328H75.024ZM86.311 30.3328V28.0509L93.1972 19.2903V19.1681H86.5554V16.9677H96.294V19.2088L89.4077 27.9694V28.1324H96.3347V30.3328H86.311ZM103.017 30.618C100.083 30.618 98.0054 28.4176 98.0054 25.4024C98.0054 22.2241 100.083 20.1052 103.017 20.1052C106.196 20.1052 107.948 22.4686 107.948 25.3209V26.0951H100.409C100.491 27.6027 101.51 28.6621 103.099 28.6621C104.321 28.6621 105.218 28.0917 105.584 27.2767H107.866C107.336 29.2733 105.584 30.618 103.017 30.618ZM100.409 24.3022H105.584C105.462 22.9575 104.443 22.0611 103.017 22.0611C101.632 22.0611 100.572 23.039 100.409 24.3022ZM110.555 34.7334V20.3497H112.96V21.6129H113.082C113.326 21.2054 114.263 20.1052 116.056 20.1052C118.827 20.1052 120.742 22.1833 120.742 25.3209C120.742 28.4584 118.868 30.618 116.138 30.618C114.386 30.618 113.449 29.6401 113.123 29.0696H113V34.7334H110.555ZM115.608 28.3362C117.197 28.3362 118.257 27.1137 118.257 25.3209C118.257 23.4873 117.197 22.3056 115.567 22.3056C113.937 22.3056 112.919 23.6095 112.919 25.3209C112.96 27.1952 114.1 28.3362 115.608 28.3362ZM123.432 34.7334V20.3497H125.836V21.6129H125.958C126.202 21.2054 127.14 20.1052 128.932 20.1052C131.703 20.1052 133.618 22.1833 133.618 25.3209C133.618 28.4584 131.744 30.618 129.014 30.618C127.262 30.618 126.325 29.6401 125.999 29.0696H125.876V34.7334H123.432ZM128.484 28.3362C130.073 28.3362 131.133 27.1137 131.133 25.3209C131.133 23.4873 130.073 22.3056 128.443 22.3056C126.814 22.3056 125.795 23.6095 125.795 25.3209C125.836 27.1952 126.936 28.3362 128.484 28.3362ZM140.668 30.618C137.734 30.618 135.656 28.4176 135.656 25.4024C135.656 22.2241 137.734 20.1052 140.668 20.1052C143.846 20.1052 145.598 22.4686 145.598 25.3209V26.0951H138.06C138.141 27.6027 139.16 28.6621 140.749 28.6621C141.971 28.6621 142.868 28.0917 143.235 27.2767H145.516C144.987 29.2733 143.235 30.618 140.668 30.618ZM138.06 24.3022H143.235C143.112 22.9575 142.094 22.0611 140.668 22.0611C139.282 22.0611 138.223 23.039 138.06 24.3022ZM150.651 30.3328C148.898 30.3328 147.921 29.2733 147.921 27.5212V16.0713H150.365V27.3175C150.365 27.8879 150.651 28.2139 151.14 28.2139H151.547V30.3735H150.651V30.3328ZM155.133 19.0051C154.236 19.0051 153.625 18.4346 153.625 17.5382C153.625 16.6825 154.236 16.112 155.133 16.112C156.029 16.112 156.64 16.6825 156.64 17.5382C156.681 18.4346 156.029 19.0051 155.133 19.0051ZM153.91 30.3328V20.309H156.355V30.3328H153.91ZM159.37 30.3328V20.309H161.693V21.5314H161.815C162.223 20.7979 163.201 20.0645 164.627 20.0645C166.868 20.0645 168.213 21.6536 168.213 23.7725V30.3328H165.768V24.4244C165.768 23.202 164.994 22.3871 163.853 22.3871C162.671 22.3871 161.815 23.3243 161.815 24.5874V30.3328H159.37Z" fill="white"/>
</g>
<defs>
<clipPath id="clip0_83_1842">
<rect width="168.001" height="46" fill="white" transform="translate(0.211914 0.42627)"/>
</clipPath>
</defs>
</svg>
