<svg width="1250" height="537" viewBox="0 0 1250 537" fill="none" xmlns="http://www.w3.org/2000/svg">
<mask id="mask0_0_17" style="mask-type:alpha" maskUnits="userSpaceOnUse" x="91" y="-63" width="417" height="410">
<path d="M111.689 193.857C112.412 201.248 116.04 208.049 121.777 212.764L276.325 339.798C295.596 355.637 324.398 340.271 321.972 315.444L307.312 165.418C305.809 150.028 317.066 136.332 332.457 134.828L482.482 120.169C507.309 117.743 516.809 86.511 497.538 70.671L342.991 -56.3618C337.255 -61.0773 329.88 -63.3207 322.489 -62.5985L116.728 -42.4931C101.338 -40.9893 90.0803 -27.2936 91.5841 -11.9029L111.689 193.857Z" fill="url(#paint0_linear_0_17)"/>
</mask>
<g mask="url(#mask0_0_17)">
<g filter="url(#filter0_f_0_17)">
<ellipse cx="266.391" cy="41.5459" rx="226.414" ry="332.033" transform="rotate(156.398 266.391 41.5459)" fill="url(#paint1_linear_0_17)"/>
</g>
<g filter="url(#filter1_f_0_17)">
<ellipse cx="510.057" cy="254.15" rx="226.414" ry="332.033" transform="rotate(-19.0442 510.057 254.15)" fill="url(#paint2_linear_0_17)"/>
</g>
</g>
<mask id="mask1_0_17" style="mask-type:alpha" maskUnits="userSpaceOnUse" x="-26" y="-54" width="431" height="397">
<path d="M173.449 339.315C180.063 342.692 187.747 343.303 194.812 341.014L385.128 279.352C408.859 271.663 411.447 239.121 389.23 227.778L254.977 159.231C241.204 152.199 235.74 135.333 242.772 121.561L311.318 -12.6917C322.662 -34.9087 301.481 -59.7497 277.75 -52.061L87.4352 9.60056C80.3707 11.8894 74.5048 16.8909 71.1279 23.5048L-22.8841 207.633C-29.9161 221.406 -24.4517 238.271 -10.6791 245.303L173.449 339.315Z" fill="url(#paint3_linear_0_17)"/>
</mask>
<g mask="url(#mask1_0_17)">
<g filter="url(#filter2_f_0_17)">
<ellipse cx="221.389" cy="308.809" rx="226.414" ry="332.033" transform="rotate(-116.103 221.389 308.809)" fill="url(#paint4_linear_0_17)"/>
</g>
<g filter="url(#filter3_f_0_17)">
<ellipse cx="43.718" cy="-11.6647" rx="226.414" ry="332.033" transform="rotate(-116.103 43.718 -11.6647)" fill="url(#paint5_linear_0_17)"/>
</g>
</g>
<mask id="mask2_0_17" style="mask-type:alpha" maskUnits="userSpaceOnUse" x="249" y="-196" width="406" height="433">
<path d="M250.941 16.8388C248.359 23.8018 248.65 31.505 251.748 38.2539L335.215 220.066C345.622 242.737 378.244 241.507 386.915 218.117L439.314 76.7777C444.689 62.278 460.801 54.8814 475.301 60.2569L616.64 112.655C640.03 121.327 662.227 97.39 651.819 74.7194L568.354 -107.092C565.255 -113.841 559.603 -119.083 552.64 -121.664L358.792 -193.529C344.293 -198.905 328.181 -191.508 322.805 -177.008L250.941 16.8388Z" fill="url(#paint6_linear_0_17)"/>
</mask>
<g mask="url(#mask2_0_17)">
<g filter="url(#filter4_f_0_17)">
<ellipse cx="456.66" cy="-52.5209" rx="226.414" ry="332.033" transform="rotate(-177.68 456.66 -52.5209)" fill="url(#paint7_linear_0_17)"/>
</g>
<g filter="url(#filter5_f_0_17)">
<ellipse cx="582.872" cy="245.211" rx="226.414" ry="332.033" transform="rotate(6.87783 582.872 245.211)" fill="url(#paint8_linear_0_17)"/>
</g>
</g>
<mask id="mask3_0_17" style="mask-type:alpha" maskUnits="userSpaceOnUse" x="-49" y="-41" width="425" height="381">
<path d="M73.122 290.228C77.309 296.361 83.7609 300.58 91.0584 301.956L287.65 339.029C312.163 343.651 330.028 316.329 315.963 295.727L230.973 171.231C222.254 158.459 225.539 141.038 238.311 132.319L362.806 47.3287C383.408 33.264 376.721 1.31134 352.207 -3.31137L155.617 -40.3843C148.32 -41.7605 140.775 -40.1814 134.642 -35.9944L-36.1044 80.5704C-48.876 89.2894 -52.1614 106.711 -43.4424 119.483L73.122 290.228Z" fill="url(#paint9_linear_0_17)"/>
</mask>
<g mask="url(#mask3_0_17)">
<g filter="url(#filter6_f_0_17)">
<ellipse cx="129.817" cy="286.424" rx="226.414" ry="332.033" transform="rotate(-87.4718 129.817 286.424)" fill="url(#paint10_linear_0_17)"/>
</g>
<g filter="url(#filter7_f_0_17)">
<ellipse cx="127.436" cy="-79.9975" rx="226.414" ry="332.033" transform="rotate(-87.4718 127.436 -79.9975)" fill="url(#paint11_linear_0_17)"/>
</g>
</g>
<mask id="mask4_0_17" style="mask-type:alpha" maskUnits="userSpaceOnUse" x="728" y="-45" width="427" height="411">
<path d="M1108.32 84.1248C1106.67 76.8844 1102.21 70.5961 1095.93 66.6432L926.567 -39.8453C905.449 -53.1235 878.82 -34.2411 884.363 -9.91949L917.86 137.052C921.296 152.129 911.86 167.137 896.782 170.574L749.812 204.071C725.49 209.614 720.012 241.796 741.13 255.074L910.488 361.562C916.775 365.515 924.374 366.809 931.615 365.159L1133.19 319.217C1148.26 315.781 1157.7 300.773 1154.26 285.695L1108.32 84.1248Z" fill="url(#paint12_linear_0_17)"/>
</mask>
<g mask="url(#mask4_0_17)">
<g filter="url(#filter8_f_0_17)">
<ellipse cx="974.105" cy="254.761" rx="226.414" ry="332.033" transform="rotate(-30.86 974.105 254.761)" fill="url(#paint13_linear_0_17)"/>
</g>
<g filter="url(#filter9_f_0_17)">
<ellipse cx="705.529" cy="74.6474" rx="226.414" ry="332.033" transform="rotate(153.697 705.529 74.6474)" fill="url(#paint14_linear_0_17)"/>
</g>
</g>
<mask id="mask5_0_17" style="mask-type:alpha" maskUnits="userSpaceOnUse" x="810" y="-55" width="432" height="407">
<path d="M1028.68 -52.3645C1021.69 -54.8787 1013.99 -54.5142 1007.27 -51.351L826.273 33.8629C803.704 44.4884 805.247 77.0967 828.72 85.5423L970.557 136.577C985.108 141.813 992.66 157.853 987.424 172.403L936.389 314.241C927.944 337.713 952.093 359.679 974.662 349.053L1155.66 263.84C1162.38 260.677 1167.57 254.974 1170.08 247.987L1240.08 53.456C1245.31 38.9052 1237.76 22.8653 1223.21 17.6298L1028.68 -52.3645Z" fill="url(#paint15_linear_0_17)"/>
</mask>
<g mask="url(#mask5_0_17)">
<g filter="url(#filter10_f_0_17)">
<ellipse cx="984.978" cy="-16.046" rx="226.414" ry="332.033" transform="rotate(56.6381 984.978 -16.046)" fill="url(#paint16_linear_0_17)"/>
</g>
<g filter="url(#filter11_f_0_17)">
<ellipse cx="1201.72" cy="279.411" rx="226.414" ry="332.033" transform="rotate(56.6381 1201.72 279.411)" fill="url(#paint17_linear_0_17)"/>
</g>
</g>
<defs>
<filter id="filter0_f_0_17" x="-60.0499" y="-356.014" width="652.881" height="795.119" filterUnits="userSpaceOnUse" color-interpolation-filters="sRGB">
<feFlood flood-opacity="0" result="BackgroundImageFix"/>
<feBlend mode="normal" in="SourceGraphic" in2="BackgroundImageFix" result="shape"/>
<feGaussianBlur stdDeviation="40" result="effect1_foregroundBlur_0_17"/>
</filter>
<filter id="filter1_f_0_17" x="190.124" y="-148.361" width="639.866" height="805.021" filterUnits="userSpaceOnUse" color-interpolation-filters="sRGB">
<feFlood flood-opacity="0" result="BackgroundImageFix"/>
<feBlend mode="normal" in="SourceGraphic" in2="BackgroundImageFix" result="shape"/>
<feGaussianBlur stdDeviation="40" result="effect1_foregroundBlur_0_17"/>
</filter>
<filter id="filter2_f_0_17" x="-173.065" y="-21.5732" width="788.907" height="660.764" filterUnits="userSpaceOnUse" color-interpolation-filters="sRGB">
<feFlood flood-opacity="0" result="BackgroundImageFix"/>
<feBlend mode="normal" in="SourceGraphic" in2="BackgroundImageFix" result="shape"/>
<feGaussianBlur stdDeviation="40" result="effect1_foregroundBlur_0_17"/>
</filter>
<filter id="filter3_f_0_17" x="-350.735" y="-342.047" width="788.907" height="660.764" filterUnits="userSpaceOnUse" color-interpolation-filters="sRGB">
<feFlood flood-opacity="0" result="BackgroundImageFix"/>
<feBlend mode="normal" in="SourceGraphic" in2="BackgroundImageFix" result="shape"/>
<feGaussianBlur stdDeviation="40" result="effect1_foregroundBlur_0_17"/>
</filter>
<filter id="filter4_f_0_17" x="150.025" y="-464.411" width="613.268" height="823.78" filterUnits="userSpaceOnUse" color-interpolation-filters="sRGB">
<feFlood flood-opacity="0" result="BackgroundImageFix"/>
<feBlend mode="normal" in="SourceGraphic" in2="BackgroundImageFix" result="shape"/>
<feGaussianBlur stdDeviation="40" result="effect1_foregroundBlur_0_17"/>
</filter>
<filter id="filter5_f_0_17" x="274.559" y="-165.564" width="616.625" height="821.55" filterUnits="userSpaceOnUse" color-interpolation-filters="sRGB">
<feFlood flood-opacity="0" result="BackgroundImageFix"/>
<feBlend mode="normal" in="SourceGraphic" in2="BackgroundImageFix" result="shape"/>
<feGaussianBlur stdDeviation="40" result="effect1_foregroundBlur_0_17"/>
</filter>
<filter id="filter6_f_0_17" x="-282.046" y="-20.2514" width="823.726" height="613.35" filterUnits="userSpaceOnUse" color-interpolation-filters="sRGB">
<feFlood flood-opacity="0" result="BackgroundImageFix"/>
<feBlend mode="normal" in="SourceGraphic" in2="BackgroundImageFix" result="shape"/>
<feGaussianBlur stdDeviation="40" result="effect1_foregroundBlur_0_17"/>
</filter>
<filter id="filter7_f_0_17" x="-284.427" y="-386.673" width="823.726" height="613.35" filterUnits="userSpaceOnUse" color-interpolation-filters="sRGB">
<feFlood flood-opacity="0" result="BackgroundImageFix"/>
<feBlend mode="normal" in="SourceGraphic" in2="BackgroundImageFix" result="shape"/>
<feGaussianBlur stdDeviation="40" result="effect1_foregroundBlur_0_17"/>
</filter>
<filter id="filter8_f_0_17" x="635.679" y="-133.098" width="676.852" height="775.717" filterUnits="userSpaceOnUse" color-interpolation-filters="sRGB">
<feFlood flood-opacity="0" result="BackgroundImageFix"/>
<feBlend mode="normal" in="SourceGraphic" in2="BackgroundImageFix" result="shape"/>
<feGaussianBlur stdDeviation="40" result="effect1_foregroundBlur_0_17"/>
</filter>
<filter id="filter9_f_0_17" x="374.823" y="-319.547" width="661.412" height="788.389" filterUnits="userSpaceOnUse" color-interpolation-filters="sRGB">
<feFlood flood-opacity="0" result="BackgroundImageFix"/>
<feBlend mode="normal" in="SourceGraphic" in2="BackgroundImageFix" result="shape"/>
<feGaussianBlur stdDeviation="40" result="effect1_foregroundBlur_0_17"/>
</filter>
<filter id="filter10_f_0_17" x="600.915" y="-358.916" width="768.126" height="685.74" filterUnits="userSpaceOnUse" color-interpolation-filters="sRGB">
<feFlood flood-opacity="0" result="BackgroundImageFix"/>
<feBlend mode="normal" in="SourceGraphic" in2="BackgroundImageFix" result="shape"/>
<feGaussianBlur stdDeviation="40" result="effect1_foregroundBlur_0_17"/>
</filter>
<filter id="filter11_f_0_17" x="817.652" y="-63.4587" width="768.126" height="685.74" filterUnits="userSpaceOnUse" color-interpolation-filters="sRGB">
<feFlood flood-opacity="0" result="BackgroundImageFix"/>
<feBlend mode="normal" in="SourceGraphic" in2="BackgroundImageFix" result="shape"/>
<feGaussianBlur stdDeviation="40" result="effect1_foregroundBlur_0_17"/>
</filter>
<linearGradient id="paint0_linear_0_17" x1="88.8612" y1="-39.7709" x2="375.202" y2="196.786" gradientUnits="userSpaceOnUse">
<stop stop-color="#D9D9D9"/>
<stop offset="1" stop-color="#D9D9D9" stop-opacity="0"/>
</linearGradient>
<linearGradient id="paint1_linear_0_17" x1="470.788" y1="243.758" x2="126.153" y2="-175.1" gradientUnits="userSpaceOnUse">
<stop stop-color="#2C002A"/>
<stop offset="1" stop-color="#F199EE"/>
</linearGradient>
<linearGradient id="paint2_linear_0_17" x1="714.454" y1="456.362" x2="369.82" y2="37.5035" gradientUnits="userSpaceOnUse">
<stop stop-color="#F199EE"/>
<stop offset="1" stop-color="#2C002A"/>
</linearGradient>
<linearGradient id="paint3_linear_0_17" x1="-35.6172" y1="232.57" x2="317.999" y2="118.969" gradientUnits="userSpaceOnUse">
<stop stop-color="#D9D9D9"/>
<stop offset="1" stop-color="#D9D9D9" stop-opacity="0"/>
</linearGradient>
<linearGradient id="paint4_linear_0_17" x1="425.786" y1="511.021" x2="81.151" y2="92.1626" gradientUnits="userSpaceOnUse">
<stop stop-color="#2C002A"/>
<stop offset="1" stop-color="#F199EE"/>
</linearGradient>
<linearGradient id="paint5_linear_0_17" x1="248.115" y1="190.547" x2="-96.5195" y2="-228.311" gradientUnits="userSpaceOnUse">
<stop stop-color="#F199EE"/>
<stop offset="1" stop-color="#2C002A"/>
</linearGradient>
<linearGradient id="paint6_linear_0_17" x1="332.539" y1="-203.263" x2="486.66" y2="134.666" gradientUnits="userSpaceOnUse">
<stop stop-color="#D9D9D9"/>
<stop offset="1" stop-color="#D9D9D9" stop-opacity="0"/>
</linearGradient>
<linearGradient id="paint7_linear_0_17" x1="661.057" y1="149.691" x2="316.422" y2="-269.167" gradientUnits="userSpaceOnUse">
<stop stop-color="#2C002A"/>
<stop offset="1" stop-color="#F199EE"/>
</linearGradient>
<linearGradient id="paint8_linear_0_17" x1="787.269" y1="447.423" x2="442.634" y2="28.5648" gradientUnits="userSpaceOnUse">
<stop stop-color="#F199EE"/>
<stop offset="1" stop-color="#2C002A"/>
</linearGradient>
<linearGradient id="paint9_linear_0_17" x1="-59.2297" y1="96.3568" x2="305.581" y2="166.091" gradientUnits="userSpaceOnUse">
<stop stop-color="#D9D9D9"/>
<stop offset="1" stop-color="#D9D9D9" stop-opacity="0"/>
</linearGradient>
<linearGradient id="paint10_linear_0_17" x1="334.215" y1="488.636" x2="-10.4202" y2="69.7775" gradientUnits="userSpaceOnUse">
<stop stop-color="#2C002A"/>
<stop offset="1" stop-color="#F199EE"/>
</linearGradient>
<linearGradient id="paint11_linear_0_17" x1="331.833" y1="122.215" x2="-12.8016" y2="-296.644" gradientUnits="userSpaceOnUse">
<stop stop-color="#F199EE"/>
<stop offset="1" stop-color="#2C002A"/>
</linearGradient>
<linearGradient id="paint12_linear_0_17" x1="1160.49" y1="312.996" x2="846.552" y2="114.513" gradientUnits="userSpaceOnUse">
<stop stop-color="#D9D9D9"/>
<stop offset="1" stop-color="#D9D9D9" stop-opacity="0"/>
</linearGradient>
<linearGradient id="paint13_linear_0_17" x1="1178.5" y1="456.973" x2="833.867" y2="38.1148" gradientUnits="userSpaceOnUse">
<stop stop-color="#2C002A"/>
<stop offset="1" stop-color="#F199EE"/>
</linearGradient>
<linearGradient id="paint14_linear_0_17" x1="909.926" y1="276.86" x2="565.292" y2="-141.999" gradientUnits="userSpaceOnUse">
<stop stop-color="#F199EE"/>
<stop offset="1" stop-color="#2C002A"/>
</linearGradient>
<linearGradient id="paint15_linear_0_17" x1="1249.56" y1="27.1099" x2="913.127" y2="184.479" gradientUnits="userSpaceOnUse">
<stop stop-color="#D9D9D9"/>
<stop offset="1" stop-color="#D9D9D9" stop-opacity="0"/>
</linearGradient>
<linearGradient id="paint16_linear_0_17" x1="1189.38" y1="186.166" x2="844.741" y2="-232.692" gradientUnits="userSpaceOnUse">
<stop stop-color="#2C002A"/>
<stop offset="1" stop-color="#F199EE"/>
</linearGradient>
<linearGradient id="paint17_linear_0_17" x1="1406.11" y1="481.624" x2="1061.48" y2="62.7651" gradientUnits="userSpaceOnUse">
<stop stop-color="#F199EE"/>
<stop offset="1" stop-color="#2C002A"/>
</linearGradient>
</defs>
</svg>
