<svg width="89" height="20" viewBox="0 0 89 20" fill="none" xmlns="http://www.w3.org/2000/svg">
<path d="M1.53965 0.113857H18.4604C19.2478 0.113857 19.8861 0.752205 19.8861 1.53965V18.4604C19.8861 19.2478 19.2478 19.8861 18.4604 19.8861H1.53965C0.752205 19.8861 0.113857 19.2478 0.113857 18.4604V1.53965C0.113857 0.752205 0.752205 0.113857 1.53965 0.113857Z" fill="#3D1541" stroke="#6E2270" stroke-width="0.227713"/>
<path d="M16.9234 4.29523V5.83359H15.3863C14.5362 5.83359 13.8467 6.52316 13.8467 7.37324V15.0638H12.3083V5.83359H10.7699V16.6021H9.23158V5.83359H7.69321V15.0638H6.15485V7.37324C6.15485 6.52316 5.46528 5.83359 4.6152 5.83359H3.07812V4.29523H16.9234Z" fill="#D642DB"/>
<path d="M28.6467 5.00202H24.5542V2.61871H35.2906V5.00202H31.1982V17.3834H28.6467V5.00202Z" fill="white"/>
<path d="M36.6611 2.61658H39.2139V8.6917H45.7321V2.61658H48.2836V17.3813H45.7321V11.075H39.2139V17.3813H36.6611V2.61658Z" fill="white"/>
<path d="M50.542 2.61658H59.464V4.99988H53.0935V8.69041H58.5779V11.0532H53.0935V14.998H59.6746V17.3813H50.542V2.61658Z" fill="white"/>
<path d="M61.3621 2.61658H65.6652L70.4318 14.8927H70.6V2.61658H73.131V17.3813H68.7856L64.1037 5.12701H63.9136V17.3813H61.3608V2.61658H61.3621Z" fill="white"/>
<path d="M84.3602 14.2194H77.9692L76.8931 17.3834H74.2568L79.4241 2.61871H83.0093L88.1342 17.3834H85.435L84.3589 14.2194H84.3602ZM83.5589 11.8784L81.2604 5.12915H81.0498L78.7512 11.8784H83.5602H83.5589Z" fill="white"/>
</svg>
