<svg width="24" height="25" viewBox="0 0 24 25" fill="none" xmlns="http://www.w3.org/2000/svg">
<path fill-rule="evenodd" clip-rule="evenodd" d="M13.2514 2.5C13.2514 1.80964 12.6918 1.25 12.0014 1.25C11.3111 1.25 10.7514 1.80964 10.7514 2.5V4.88635H9.72869C8.5533 4.88635 7.42605 5.35328 6.59492 6.1844C5.7638 7.01553 5.29688 8.14278 5.29688 9.31817C5.29688 10.4936 5.7638 11.6208 6.59492 12.4519C7.42605 13.2831 8.5533 13.75 9.72869 13.75H10.7514V17.6136H6.54688C5.85652 17.6136 5.29688 18.1733 5.29688 18.8636C5.29688 19.554 5.85652 20.1136 6.54688 20.1136H10.7514V22.5C10.7514 23.1904 11.3111 23.75 12.0014 23.75C12.6918 23.75 13.2514 23.1904 13.2514 22.5V20.1136H14.2741C15.4495 20.1136 16.5768 19.6467 17.4079 18.8156C18.239 17.9844 18.706 16.8572 18.706 15.6818C18.706 14.5064 18.239 13.3792 17.4079 12.548C16.5768 11.7169 15.4495 11.25 14.2741 11.25H13.2514V7.38635H16.5469C17.2372 7.38635 17.7969 6.82671 17.7969 6.13635C17.7969 5.446 17.2372 4.88635 16.5469 4.88635H13.2514V2.5ZM10.7514 7.38635H9.72869C9.21634 7.38635 8.72498 7.58988 8.36269 7.95217C8.00041 8.31446 7.79688 8.80582 7.79688 9.31817C7.79688 9.83052 8.00041 10.3219 8.36269 10.6842C8.72498 11.0465 9.21634 11.25 9.72869 11.25H10.7514V7.38635ZM13.2514 13.75V17.6136H14.2741C14.7865 17.6136 15.2779 17.4101 15.6402 17.0478C16.0024 16.6855 16.206 16.1942 16.206 15.6818C16.206 15.1695 16.0024 14.6781 15.6402 14.3158C15.2779 13.9535 14.7865 13.75 14.2741 13.75H13.2514Z" fill="url(#paint0_linear_99_11327)"/>
<defs>
<linearGradient id="paint0_linear_99_11327" x1="12.0014" y1="1.25" x2="12.0014" y2="23.75" gradientUnits="userSpaceOnUse">
<stop stop-color="white"/>
<stop offset="1" stop-color="white" stop-opacity="0.45"/>
</linearGradient>
</defs>
</svg>
