<svg width="20" height="22" viewBox="0 0 20 22" fill="none" xmlns="http://www.w3.org/2000/svg">
<path fill-rule="evenodd" clip-rule="evenodd" d="M13.4595 1.12639C13.8501 0.735865 14.4832 0.735865 14.8738 1.12639L18.199 4.45161C18.2312 4.48309 18.2613 4.51673 18.289 4.55229C18.333 4.60867 18.3702 4.66868 18.4004 4.73119C18.4642 4.86285 18.5 5.01062 18.5 5.16675C18.5 5.29265 18.4767 5.41312 18.4343 5.52409C18.3856 5.65161 18.3099 5.77118 18.2071 5.87394L14.8738 9.20727C14.4832 9.59779 13.8501 9.59779 13.4595 9.20727C13.069 8.81675 13.069 8.18358 13.4595 7.79306L15.0859 6.16675H5.83333C5.21449 6.16675 4.621 6.41258 4.18342 6.85017C3.74583 7.28775 3.5 7.88124 3.5 8.50008V10.1667C3.5 10.719 3.05228 11.1667 2.5 11.1667C1.94772 11.1667 1.5 10.719 1.5 10.1667V8.50008C1.5 7.35081 1.95655 6.24861 2.7692 5.43595C3.58186 4.62329 4.68406 4.16675 5.83333 4.16675H15.0857L13.4595 2.5406C13.069 2.15008 13.069 1.51691 13.4595 1.12639ZM17.5 10.8335C18.0523 10.8335 18.5 11.2812 18.5 11.8335V13.5002C18.5 14.6494 18.0435 15.7516 17.2308 16.5643C16.4181 17.3769 15.3159 17.8335 14.1667 17.8335H4.91425L6.54044 19.4597C6.93096 19.8502 6.93096 20.4834 6.54044 20.8739C6.14992 21.2644 5.51675 21.2644 5.12623 20.8739L1.7983 17.546C1.77955 17.5275 1.76153 17.5083 1.74428 17.4884C1.5921 17.313 1.5 17.084 1.5 16.8335L1.5 16.8305C1.50039 16.7024 1.52483 16.5801 1.56904 16.4676C1.61781 16.3433 1.69243 16.2268 1.79289 16.1263L5.12623 12.793C5.51675 12.4025 6.14992 12.4025 6.54044 12.793C6.93096 13.1835 6.93096 13.8167 6.54044 14.2072L4.91417 15.8335H14.1667C14.7855 15.8335 15.379 15.5877 15.8166 15.1501C16.2542 14.7125 16.5 14.119 16.5 13.5002V11.8335C16.5 11.2812 16.9477 10.8335 17.5 10.8335Z" fill="url(#paint0_linear_99_11340)"/>
<defs>
<linearGradient id="paint0_linear_99_11340" x1="10" y1="0.833496" x2="10" y2="21.1668" gradientUnits="userSpaceOnUse">
<stop stop-color="white"/>
<stop offset="1" stop-color="white" stop-opacity="0.45"/>
</linearGradient>
</defs>
</svg>
