<svg width="16" height="16" viewBox="0 0 16 16" fill="none" xmlns="http://www.w3.org/2000/svg">
<path d="M3.33333 6.00009V11.3334M6.33333 6.00009V11.3334M9.66667 6.00009V11.3334M12.6667 6.00009V11.3334M2 12.4001L2 12.9334C2 13.3068 2 13.4935 2.07266 13.6361C2.13658 13.7615 2.23856 13.8635 2.36401 13.9274C2.50661 14.0001 2.6933 14.0001 3.06667 14.0001H12.9333C13.3067 14.0001 13.4934 14.0001 13.636 13.9274C13.7614 13.8635 13.8634 13.7615 13.9273 13.6361C14 13.4935 14 13.3068 14 12.9334V12.4001C14 12.0267 14 11.84 13.9273 11.6974C13.8634 11.572 13.7614 11.47 13.636 11.4061C13.4934 11.3334 13.3067 11.3334 12.9333 11.3334H3.06667C2.6933 11.3334 2.50661 11.3334 2.36401 11.4061C2.23857 11.47 2.13658 11.572 2.07266 11.6974C2 11.84 2 12.0267 2 12.4001ZM7.76861 2.05152L2.83527 3.14781C2.53723 3.21404 2.38821 3.24716 2.27698 3.3273C2.17886 3.39798 2.10182 3.49402 2.0541 3.60514C2 3.73111 2 3.88377 2 4.18908L2 4.93343C2 5.3068 2 5.49348 2.07266 5.63609C2.13658 5.76153 2.23856 5.86352 2.36401 5.92743C2.50661 6.00009 2.6933 6.00009 3.06667 6.00009H12.9333C13.3067 6.00009 13.4934 6.00009 13.636 5.92743C13.7614 5.86352 13.8634 5.76153 13.9273 5.63609C14 5.49348 14 5.3068 14 4.93343V4.18908C14 3.88377 14 3.73111 13.9459 3.60514C13.8982 3.49403 13.8211 3.39798 13.723 3.3273C13.6118 3.24716 13.4628 3.21404 13.1647 3.14781L8.23139 2.05152C8.14504 2.03233 8.10187 2.02273 8.05824 2.01891C8.01949 2.01551 7.98051 2.01551 7.94176 2.01891C7.89813 2.02273 7.85496 2.03233 7.76861 2.05152Z" stroke="url(#paint0_linear_3107_15700)" stroke-width="1.33" stroke-linecap="round" stroke-linejoin="round"/>
<defs>
<linearGradient id="paint0_linear_3107_15700" x1="8" y1="2.01636" x2="8" y2="14.0001" gradientUnits="userSpaceOnUse">
<stop stop-color="white"/>
<stop offset="1" stop-color="white" stop-opacity="0.6"/>
</linearGradient>
</defs>
</svg>
