<svg width="32" height="32" viewBox="0 0 32 32" fill="none" xmlns="http://www.w3.org/2000/svg">
<path d="M17.3327 6.66667C17.3327 8.13943 14.0494 9.33333 9.99935 9.33333C5.94926 9.33333 2.66602 8.13943 2.66602 6.66667M17.3327 6.66667C17.3327 5.19391 14.0494 4 9.99935 4C5.94926 4 2.66602 5.19391 2.66602 6.66667M17.3327 6.66667V8.66667M2.66602 6.66667V22.6667C2.66602 24.1394 5.94926 25.3333 9.99935 25.3333M9.99935 14.6667C9.77462 14.6667 9.55226 14.663 9.33268 14.6558C5.59501 14.5333 2.66602 13.391 2.66602 12M9.99935 20C5.94926 20 2.66602 18.8061 2.66602 17.3333M29.3327 15.3333C29.3327 16.8061 26.0494 18 21.9993 18C17.9493 18 14.666 16.8061 14.666 15.3333M29.3327 15.3333C29.3327 13.8606 26.0494 12.6667 21.9993 12.6667C17.9493 12.6667 14.666 13.8606 14.666 15.3333M29.3327 15.3333V25.3333C29.3327 26.8061 26.0494 28 21.9993 28C17.9493 28 14.666 26.8061 14.666 25.3333V15.3333M29.3327 20.3333C29.3327 21.8061 26.0494 23 21.9993 23C17.9493 23 14.666 21.8061 14.666 20.3333" stroke="inherit" stroke-width="2" stroke-linecap="round" stroke-linejoin="round"/>
</svg>
