<svg width="32" height="32" viewBox="0 0 32 32" fill="none" xmlns="http://www.w3.org/2000/svg">
<path d="M6.66592 17.3333C6.66592 12.9151 10.2476 9.33333 14.6659 9.33333M6.66592 17.3333C6.66592 19.5312 7.55222 21.522 8.98691 22.9679C9.12528 23.1074 9.19446 23.1771 9.2353 23.2442C9.27426 23.3081 9.29695 23.3632 9.31435 23.4361C9.33259 23.5124 9.33259 23.5993 9.33259 23.7731V26.9333C9.33259 27.3067 9.33259 27.4934 9.40525 27.636C9.46917 27.7614 9.57115 27.8634 9.6966 27.9273C9.8392 28 10.0259 28 10.3993 28H12.9326C13.306 28 13.4926 28 13.6353 27.9273C13.7607 27.8634 13.8627 27.7614 13.9266 27.636C13.9993 27.4934 13.9993 27.3067 13.9993 26.9333V26.4C13.9993 26.0266 13.9993 25.8399 14.0719 25.6973C14.1358 25.5719 14.2378 25.4699 14.3633 25.406C14.5059 25.3333 14.6926 25.3333 15.0659 25.3333H16.9326C17.306 25.3333 17.4926 25.3333 17.6353 25.406C17.7607 25.4699 17.8627 25.5719 17.9266 25.6973C17.9993 25.8399 17.9993 26.0266 17.9993 26.4V26.9333C17.9993 27.3067 17.9993 27.4934 18.0719 27.636C18.1358 27.7614 18.2378 27.8634 18.3633 27.9273C18.5059 28 18.6926 28 19.0659 28H21.5993C21.9727 28 22.1594 28 22.302 27.9273C22.4275 27.8634 22.5294 27.7614 22.5934 27.636C22.666 27.4934 22.666 27.3067 22.666 26.9333V25.6324C22.666 25.363 22.666 25.2283 22.7044 25.1202C22.7411 25.0165 22.7874 24.944 22.866 24.867C22.9479 24.7867 23.0867 24.7222 23.3643 24.5934C24.6739 23.9854 25.7914 23.0334 26.6008 21.8536C26.7432 21.6461 26.8143 21.5423 26.8904 21.4811C26.963 21.4225 27.0282 21.3881 27.1177 21.3613C27.2112 21.3333 27.3222 21.3333 27.5443 21.3333H28.266C28.6394 21.3333 28.8261 21.3333 28.9687 21.2607C29.0941 21.1968 29.1961 21.0948 29.26 20.9693C29.3327 20.8267 29.3327 20.64 29.3327 20.2667V15.7143C29.3327 15.3589 29.3327 15.1812 29.2666 15.044C29.2011 14.908 29.0914 14.7982 28.9553 14.7327C28.8182 14.6667 28.6405 14.6667 28.285 14.6667C28.0277 14.6667 27.8991 14.6667 27.7955 14.6317C27.6837 14.5941 27.6054 14.544 27.5243 14.4584C27.4492 14.379 27.3878 14.2462 27.265 13.9806C26.8711 13.1283 26.3316 12.357 25.6784 11.6987C25.54 11.5593 25.4708 11.4896 25.43 11.4225C25.391 11.3585 25.3683 11.3034 25.3509 11.2306C25.3327 11.1542 25.3327 11.0673 25.3327 10.8936V9.4141C25.3327 8.93404 25.3327 8.69401 25.2327 8.53267C25.1451 8.39134 25.0079 8.28784 24.848 8.24246C24.6654 8.19066 24.4346 8.2566 23.973 8.38848L20.8096 9.29229C20.7558 9.30765 20.7289 9.31533 20.7016 9.32072C20.6773 9.32551 20.6528 9.32895 20.6281 9.33101C20.6004 9.33333 20.5722 9.33333 20.5159 9.33333H14.6659M6.66592 17.3333H5.33268C3.85992 17.3333 2.66602 16.1394 2.66602 14.6667C2.66602 13.6796 3.20228 12.8178 3.99935 12.3568M14.6659 9.33333H19.9521C19.9832 9.1156 19.9993 8.89301 19.9993 8.66667C19.9993 6.08934 17.91 4 15.3327 4C12.7554 4 10.666 6.08934 10.666 8.66667C10.666 9.22294 10.7633 9.75648 10.9419 10.2512C12.0542 9.66508 13.3213 9.33333 14.6659 9.33333Z" stroke="#DC00D4" stroke-width="2" stroke-linecap="round" stroke-linejoin="round"/>
</svg>
