<svg width="17" height="16" viewBox="0 0 17 16" fill="none" xmlns="http://www.w3.org/2000/svg">
<path d="M3.66597 8.66667C3.66597 6.45753 5.45683 4.66667 7.66597 4.66667M3.66597 8.66667C3.66597 9.76559 4.10912 10.761 4.82646 11.484C4.89565 11.5537 4.93024 11.5886 4.95066 11.6221C4.97014 11.6541 4.98148 11.6816 4.99018 11.718C4.9993 11.7562 4.9993 11.7997 4.9993 11.8866V13.4667C4.9993 13.6534 4.9993 13.7467 5.03563 13.818C5.06759 13.8807 5.11858 13.9317 5.18131 13.9637C5.25261 14 5.34595 14 5.53264 14H6.7993C6.98599 14 7.07933 14 7.15063 13.9637C7.21335 13.9317 7.26435 13.8807 7.2963 13.818C7.33264 13.7467 7.33264 13.6534 7.33264 13.4667V13.2C7.33264 13.0133 7.33264 12.92 7.36897 12.8487C7.40092 12.7859 7.45192 12.735 7.51464 12.703C7.58594 12.6667 7.67929 12.6667 7.86597 12.6667H8.7993C8.98599 12.6667 9.07933 12.6667 9.15063 12.703C9.21335 12.735 9.26435 12.7859 9.2963 12.8487C9.33264 12.92 9.33264 13.0133 9.33264 13.2V13.4667C9.33264 13.6534 9.33264 13.7467 9.36897 13.818C9.40092 13.8807 9.45192 13.9317 9.51464 13.9637C9.58594 14 9.67929 14 9.86597 14H11.1327C11.3194 14 11.4127 14 11.484 13.9637C11.5467 13.9317 11.5977 13.8807 11.6297 13.818C11.666 13.7467 11.666 13.6534 11.666 13.4667V12.8162C11.666 12.6815 11.666 12.6142 11.6852 12.5601C11.7036 12.5083 11.7267 12.472 11.766 12.4335C11.807 12.3933 11.8763 12.3611 12.0151 12.2967C12.6699 11.9927 13.2287 11.5167 13.6334 10.9268C13.7046 10.823 13.7402 10.7712 13.7782 10.7405C13.8145 10.7112 13.8471 10.6941 13.8918 10.6807C13.9386 10.6667 13.9941 10.6667 14.1052 10.6667H14.466C14.6527 10.6667 14.746 10.6667 14.8173 10.6303C14.8801 10.5984 14.9311 10.5474 14.963 10.4847C14.9993 10.4134 14.9993 10.32 14.9993 10.1333V7.85717C14.9993 7.67944 14.9994 7.59058 14.9663 7.52202C14.9336 7.454 14.8787 7.39911 14.8107 7.36635C14.7421 7.33333 14.6532 7.33333 14.4755 7.33333C14.3469 7.33333 14.2826 7.33333 14.2307 7.31587C14.1749 7.29704 14.1357 7.27199 14.0952 7.22918C14.0576 7.18948 14.0269 7.12309 13.9655 6.99032C13.7685 6.56415 13.4988 6.17852 13.1722 5.84936C13.103 5.77964 13.0684 5.74478 13.048 5.71125C13.0285 5.67926 13.0172 5.65172 13.0085 5.61529C12.9993 5.57711 12.9993 5.53367 12.9993 5.44678V4.70705C12.9993 4.46702 12.9993 4.34701 12.9494 4.26634C12.9056 4.19567 12.837 4.14392 12.757 4.12123C12.6657 4.09533 12.5503 4.1283 12.3195 4.19424L10.7378 4.64615C10.7109 4.65383 10.6975 4.65767 10.6838 4.66036C10.6717 4.66276 10.6594 4.66447 10.6471 4.66551C10.6332 4.66667 10.6191 4.66667 10.5909 4.66667H7.66597M3.66597 8.66667H2.99935C2.26297 8.66667 1.66602 8.06971 1.66602 7.33333C1.66602 6.83981 1.93415 6.40892 2.33268 6.17838M7.66597 4.66667H10.3091C10.3246 4.5578 10.3327 4.44651 10.3327 4.33333C10.3327 3.04467 9.28801 2 7.99935 2C6.71068 2 5.66602 3.04467 5.66602 4.33333C5.66602 4.61147 5.71468 4.87824 5.80396 5.12559C6.36011 4.83254 6.99365 4.66667 7.66597 4.66667Z" stroke="url(#paint0_linear_3107_20419)" stroke-width="1.33" stroke-linecap="round" stroke-linejoin="round"/>
<defs>
<linearGradient id="paint0_linear_3107_20419" x1="8.33268" y1="2" x2="8.33268" y2="14" gradientUnits="userSpaceOnUse">
<stop stop-color="white"/>
<stop offset="1" stop-color="white" stop-opacity="0.6"/>
</linearGradient>
</defs>
</svg>
