<svg xmlns="http://www.w3.org/2000/svg" width="20" height="20" viewBox="0 0 20 20" fill="none">
<path d="M7.82924 16.1426L8.31628 17.238C8.46106 17.564 8.69734 17.8411 8.99647 18.0355C9.29559 18.23 9.6447 18.3334 10.0015 18.3334C10.3582 18.3334 10.7073 18.23 11.0065 18.0355C11.3056 17.8411 11.5419 17.564 11.6866 17.238L12.1737 16.1426C12.3471 15.7539 12.6387 15.4299 13.007 15.2167C13.3777 15.0029 13.8065 14.9118 14.232 14.9565L15.4237 15.0834C15.7784 15.1209 16.1364 15.0547 16.4543 14.8928C16.7721 14.7309 17.0362 14.4803 17.2144 14.1713C17.3929 13.8625 17.4779 13.5086 17.4592 13.1524C17.4405 12.7963 17.3188 12.4532 17.1089 12.1648L16.4033 11.1954C16.1521 10.8476 16.0178 10.429 16.02 10C16.0199 9.57218 16.1554 9.15531 16.407 8.80928L17.1126 7.83984C17.3225 7.55148 17.4442 7.20841 17.4629 6.85225C17.4816 6.49608 17.3966 6.14214 17.2181 5.83335C17.0399 5.52438 16.7758 5.27376 16.458 5.11188C16.1401 4.94999 15.7821 4.8838 15.4274 4.92132L14.2357 5.04817C13.8102 5.09286 13.3814 5.00179 13.0107 4.78798C12.6417 4.57356 12.35 4.24782 12.1774 3.85743L11.6866 2.76206C11.5419 2.436 11.3056 2.15895 11.0065 1.96452C10.7073 1.77009 10.3582 1.66663 10.0015 1.66669C9.6447 1.66663 9.29559 1.77009 8.99647 1.96452C8.69734 2.15895 8.46106 2.436 8.31628 2.76206L7.82924 3.85743C7.65668 4.24782 7.36497 4.57356 6.99591 4.78798C6.62525 5.00179 6.19647 5.09286 5.77091 5.04817L4.57554 4.92132C4.22081 4.8838 3.86282 4.94999 3.54497 5.11188C3.22711 5.27376 2.96305 5.52438 2.7848 5.83335C2.60632 6.14214 2.52128 6.49608 2.54002 6.85225C2.55876 7.20841 2.68046 7.55148 2.89035 7.83984L3.59591 8.80928C3.84753 9.15531 3.98302 9.57218 3.98295 10C3.98302 10.4279 3.84753 10.8447 3.59591 11.1908L2.89035 12.1602C2.68046 12.4486 2.55876 12.7916 2.54002 13.1478C2.52128 13.504 2.60632 13.8579 2.7848 14.1667C2.96323 14.4755 3.22732 14.726 3.54513 14.8878C3.86294 15.0497 4.22084 15.116 4.57554 15.0787L5.76721 14.9519C6.19276 14.9072 6.62155 14.9983 6.99221 15.2121C7.36265 15.4259 7.65571 15.7517 7.82924 16.1426Z" stroke="inherit" stroke-width="1.67" stroke-linecap="round" stroke-linejoin="round"/>
<path d="M9.99997 12.5C11.3807 12.5 12.5 11.3807 12.5 10C12.5 8.61931 11.3807 7.50002 9.99997 7.50002C8.61926 7.50002 7.49998 8.61931 7.49998 10C7.49998 11.3807 8.61926 12.5 9.99997 12.5Z" stroke="inherit" stroke-width="1.67" stroke-linecap="round" stroke-linejoin="round"/>
</svg>