<svg width="17" height="16" viewBox="0 0 17 16" fill="none" xmlns="http://www.w3.org/2000/svg">
<path d="M11.3327 5.33334V3.00044C11.3327 2.44595 11.3327 2.1687 11.2159 1.99832C11.1138 1.84946 10.9558 1.74834 10.7779 1.71806C10.5742 1.68341 10.3225 1.79959 9.81902 2.03195L3.90536 4.76134C3.45635 4.96857 3.23185 5.07219 3.06742 5.23289C2.92205 5.37495 2.81109 5.54837 2.74302 5.73989C2.66602 5.95653 2.66602 6.20379 2.66602 6.69832V10M11.666 9.66667H11.6727M2.66602 7.46667L2.66602 11.8667C2.66602 12.6134 2.66602 12.9868 2.81134 13.272C2.93917 13.5229 3.14315 13.7268 3.39403 13.8547C3.67924 14 4.05261 14 4.79935 14H12.5327C13.2794 14 13.6528 14 13.938 13.8547C14.1889 13.7269 14.3929 13.5229 14.5207 13.272C14.666 12.9868 14.666 12.6134 14.666 11.8667V7.46667C14.666 6.71994 14.666 6.34657 14.5207 6.06135C14.3929 5.81047 14.1889 5.6065 13.938 5.47867C13.6528 5.33334 13.2794 5.33334 12.5327 5.33334L4.79935 5.33334C4.05261 5.33334 3.67924 5.33334 3.39403 5.47867C3.14315 5.6065 2.93917 5.81047 2.81134 6.06135C2.66602 6.34657 2.66602 6.71994 2.66602 7.46667ZM11.9993 9.66667C11.9993 9.85077 11.8501 10 11.666 10C11.4819 10 11.3327 9.85077 11.3327 9.66667C11.3327 9.48258 11.4819 9.33334 11.666 9.33334C11.8501 9.33334 11.9993 9.48258 11.9993 9.66667Z" stroke="url(#paint0_linear_3107_12653)" stroke-width="1.33" stroke-linecap="round" stroke-linejoin="round"/>
<defs>
<linearGradient id="paint0_linear_3107_12653" x1="8.66602" y1="1.71204" x2="8.66602" y2="14" gradientUnits="userSpaceOnUse">
<stop stop-color="white"/>
<stop offset="1" stop-color="white" stop-opacity="0.6"/>
</linearGradient>
</defs>
</svg>
