<?xml version="1.0" standalone="no"?>
<!DOCTYPE svg PUBLIC "-//W3C//DTD SVG 20010904//EN"
 "http://www.w3.org/TR/2001/REC-SVG-20010904/DTD/svg10.dtd">
<svg version="1.0" xmlns="http://www.w3.org/2000/svg"
 width="704.000000pt" height="704.000000pt" viewBox="0 0 704.000000 704.000000"
 preserveAspectRatio="xMidYMid meet">
<metadata>
Created by potrace 1.14, written by Peter Selinger 2001-2017
</metadata>
<g transform="translate(0.000000,704.000000) scale(0.100000,-0.100000)"
fill="#000000" stroke="none">
<path d="M423 7006 c-188 -46 -345 -201 -394 -389 -18 -69 -19 -180 -18 -3107
0 -2101 3 -3050 10 -3085 26 -121 123 -267 222 -332 56 -37 81 -49 151 -73 58
-20 88 -20 3120 -20 2720 0 3068 2 3120 15 190 50 350 217 388 407 11 55 13
592 13 3105 -1 2890 -2 3041 -19 3098 -53 179 -185 314 -361 371 l-70 23
-3055 0 c-2433 -1 -3066 -3 -3107 -13z"/>
</g>
</svg>
