<svg width="128" height="20" viewBox="0 0 128 20" fill="none" xmlns="http://www.w3.org/2000/svg">
<g opacity="0.65" clip-path="url(#clip0_1168_16152)">
<path d="M17.9867 19.9363V14.7468H12.3354C10.7985 14.7468 9.37489 15.5536 8.58776 16.8707L6.75562 19.9363H17.9867Z" fill="#63D2F9"/>
<path d="M0 0V5.1895H14.8852L17.9867 0H0Z" fill="#4E5EE4"/>
<path d="M7.12385 8.11043L0.0163574 19.9363H6.07178L14.5711 5.78833H11.2272C9.54533 5.78833 7.98713 6.67011 7.12385 8.11043Z" fill="#63B0F9"/>
<path d="M30.8698 14.9567C27.8248 14.9567 25.5842 12.7434 25.5842 9.77327C25.5842 6.83172 27.8392 4.58986 30.8841 4.58986C33.9291 4.58986 36.184 6.86028 36.184 9.77327C36.184 12.7148 33.9147 14.9567 30.8698 14.9567ZM30.8841 13.1432C32.8088 13.1432 34.1876 11.7153 34.1876 9.77327C34.1876 7.85983 32.8088 6.40334 30.8841 6.40334C28.9451 6.40334 27.5663 7.85983 27.5663 9.77327C27.5663 11.7153 28.9451 13.1432 30.8841 13.1432ZM38.223 18.0553V7.2601H40.0615V8.21682H40.162C40.3631 7.90267 41.0525 7.07447 42.4313 7.07447C44.5427 7.07447 45.9933 8.6452 45.9933 10.987C45.9933 13.3288 44.557 14.9567 42.4888 14.9567C41.153 14.9567 40.4349 14.2142 40.1907 13.8H40.0902V18.0553H38.223ZM42.0723 13.2717C43.2787 13.2717 44.0974 12.3436 44.0974 11.0156C44.0974 9.64475 43.2788 8.75943 42.0579 8.75943C40.8227 8.75943 40.0471 9.74471 40.0471 11.0156C40.0471 12.415 40.9089 13.2717 42.0723 13.2717ZM51.3358 14.9567C49.1095 14.9567 47.5296 13.3003 47.5296 11.0584C47.5296 8.68804 49.1239 7.07447 51.3358 7.07447C53.7631 7.07447 55.0845 8.85939 55.0845 10.9727V11.5582H49.3393C49.3968 12.7005 50.1868 13.4716 51.3932 13.4716C52.3125 13.4716 53.0162 13.0432 53.2748 12.4292H55.0127C54.6392 13.9571 53.2891 14.9567 51.3358 14.9567ZM49.3681 10.2445H53.3035C53.2173 9.23065 52.4274 8.55952 51.3358 8.55952C50.2873 8.55952 49.483 9.30205 49.3681 10.2445ZM57.0948 14.771V7.2601H58.8758V8.17398H58.9763C59.2779 7.61709 60.0248 7.07447 61.102 7.07447C62.7968 7.07447 63.831 8.25966 63.831 9.85894V14.771H61.9638V10.3444C61.9638 9.43056 61.3749 8.81655 60.5131 8.81655C59.6083 8.81655 58.9619 9.53052 58.9619 10.473V14.771H57.0948ZM65.6832 14.771V13.0718L70.9113 6.51757V6.41762H65.8699V4.77549H73.2955V6.46046L68.0675 13.0147V13.1289H73.3243V14.771H65.6832ZM78.3795 14.9567C76.1532 14.9567 74.5733 13.3003 74.5733 11.0584C74.5733 8.68804 76.1676 7.07447 78.3795 7.07447C80.8068 7.07447 82.1282 8.85939 82.1282 10.9727V11.5582H76.383C76.4405 12.7005 77.2304 13.4716 78.4369 13.4716C79.3561 13.4716 80.0599 13.0432 80.3185 12.4292H82.0564C81.6829 13.9571 80.3328 14.9567 78.3795 14.9567ZM76.4118 10.2445H80.3472C80.261 9.23065 79.4711 8.55952 78.3795 8.55952C77.331 8.55952 76.5267 9.30205 76.4118 10.2445ZM84.1385 18.0553V7.2601H85.9769V8.21682H86.0774C86.2785 7.90267 86.9679 7.07447 88.3468 7.07447C90.4581 7.07447 91.9088 8.6452 91.9088 10.987C91.9088 13.3288 90.4725 14.9567 88.4042 14.9567C87.0685 14.9567 86.3503 14.2142 86.1062 13.8H86.0056V18.0553H84.1385ZM87.9877 13.2717C89.1942 13.2717 90.0129 12.3436 90.0129 11.0156C90.0129 9.64475 89.1942 8.75943 87.9733 8.75943C86.7381 8.75943 85.9625 9.74471 85.9625 11.0156C85.9625 12.415 86.8243 13.2717 87.9877 13.2717ZM93.919 18.0553V7.2601H95.7575V8.21682H95.858C96.0591 7.90267 96.7485 7.07447 98.1273 7.07447C100.239 7.07447 101.689 8.6452 101.689 10.987C101.689 13.3288 100.253 14.9567 98.1848 14.9567C96.8491 14.9567 96.1309 14.2142 95.8867 13.8H95.7862V18.0553H93.919ZM97.7683 13.2717C98.9748 13.2717 99.7934 12.3436 99.7934 11.0156C99.7934 9.64475 98.9748 8.75943 97.7539 8.75943C96.5187 8.75943 95.7431 9.74471 95.7431 11.0156C95.7431 12.415 96.6049 13.2717 97.7683 13.2717ZM107.032 14.9567C104.806 14.9567 103.226 13.3003 103.226 11.0584C103.226 8.68804 104.82 7.07447 107.032 7.07447C109.459 7.07447 110.781 8.85939 110.781 10.9727V11.5582H105.035C105.093 12.7005 105.883 13.4716 107.089 13.4716C108.008 13.4716 108.712 13.0432 108.971 12.4292H110.709C110.335 13.9571 108.985 14.9567 107.032 14.9567ZM105.064 10.2445H109C108.913 9.23065 108.123 8.55952 107.032 8.55952C105.983 8.55952 105.179 9.30205 105.064 10.2445ZM114.629 14.771C113.308 14.771 112.561 13.9857 112.561 12.6577V4.06152H114.428V12.4863C114.428 12.9147 114.644 13.1432 115.031 13.1432H115.333V14.771H114.629ZM118.061 6.26055C117.386 6.26055 116.912 5.84644 116.912 5.17531C116.912 4.53274 117.386 4.10436 118.061 4.10436C118.736 4.10436 119.21 4.53274 119.21 5.17531C119.21 5.84644 118.736 6.26055 118.061 6.26055ZM117.128 14.771V7.2601H118.995V14.771H117.128ZM121.264 14.771V7.2601H123.045V8.17398H123.145C123.447 7.61709 124.194 7.07447 125.271 7.07447C126.966 7.07447 128 8.25966 128 9.85894V14.771H126.133V10.3444C126.133 9.43056 125.544 8.81655 124.682 8.81655C123.777 8.81655 123.131 9.53052 123.131 10.473V14.771H121.264Z" fill="white"/>
</g>
<defs>
<clipPath id="clip0_1168_16152">
<rect width="128" height="20" fill="white"/>
</clipPath>
</defs>
</svg>
