<svg width="173" height="47" viewBox="0 0 173 47" fill="none" xmlns="http://www.w3.org/2000/svg">
<g clip-path="url(#clip0_83_1840)">
<path fill-rule="evenodd" clip-rule="evenodd" d="M5.36233 20.1659L13.4119 15.5015L21.4615 20.1659L18.4412 21.8057L13.4119 18.9051L8.25193 21.8057L5.36233 20.1659ZM21.3377 25.9604L18.4412 24.3206L13.4119 27.2212L8.25193 24.3206L5.35545 25.9604V29.364L10.3916 32.2646V38.1899L13.2881 39.9538L16.1846 38.1899V32.3955L21.2207 29.4949V25.9672H21.3377V25.9604ZM21.3377 35.2893V31.8857L18.4412 33.6495V36.9222L21.3377 35.2893ZM23.4774 36.4192L18.4481 39.3199V42.7235L26.5046 38.059V28.737L23.4842 30.6248L23.4774 36.4192ZM20.5809 23.0666L23.4774 24.8304V28.234L26.3738 26.4702V23.0666L23.4774 21.3028L20.5809 23.0666ZM10.3916 40.5807V43.9844L13.2881 45.7482L16.1846 43.9844V40.5807L13.2881 42.3446L10.3916 40.5807ZM5.35545 35.2893L8.25193 36.9291V33.5255L5.35545 31.7617V35.2893ZM10.3916 23.0666L13.2881 24.8304L16.3084 23.0666L13.4119 21.3028L10.3916 23.0666ZM3.22265 24.8304L6.24297 23.0666L3.22265 21.3028L0.326172 23.0666V26.4702L3.22265 28.234V24.8304ZM3.22265 30.6248L0.326172 28.861V38.1831L8.38265 42.8475V39.4439L3.34649 36.5433V30.6179L3.22265 30.6248ZM49.649 34.5312C49.649 32.2644 48.3899 31.1276 46.5048 30.3697C47.7639 29.7427 48.7683 28.6059 48.7683 26.7181C48.7683 24.0723 46.6287 22.3085 43.2299 22.3085H35.428V39.1957H43.4776C47.1309 39.0648 49.649 37.5559 49.649 34.5312ZM44.9912 27.345C44.9912 28.6059 43.9867 29.1089 42.3493 29.1089H38.9506V25.4572H42.597C44.2413 25.4572 44.9912 26.0911 44.9912 27.345ZM46.0026 34.0283C46.0026 35.2891 44.9981 35.9161 43.3607 35.9161H38.9575V32.2644H43.2368C45.1219 32.1335 46.0026 32.8914 46.0026 34.0283ZM67.8954 22.3085V39.0648V39.1957H64.7512L56.5709 28.4819V39.1957H52.9245V22.3085H56.3163L64.2421 32.6434V22.3085H67.8954ZM86.3882 34.5312C86.3882 32.2644 85.1291 31.1276 83.244 30.3697C84.5031 29.7427 85.5075 28.6059 85.5075 26.7181C85.5075 24.0723 83.3679 22.3085 79.9691 22.3085H72.1672V39.1957H80.2168C83.8701 39.0648 86.3882 37.5559 86.3882 34.5312ZM81.8611 27.345C81.8611 28.6059 80.8567 29.1089 79.2192 29.1089H75.8205V25.4572H79.4669C80.9805 25.4572 81.8611 26.0911 81.8611 27.345ZM82.7418 34.0283C82.7418 35.2891 81.7373 35.9161 80.0999 35.9161H75.6967V32.2644H79.976C81.8611 32.1335 82.7418 32.8914 82.7418 34.0283ZM106.774 34.2834L108.659 36.1713C106.898 37.9351 105.013 39.065 101.869 39.0788C96.9562 39.0788 93.3098 35.2962 93.3098 30.3837C93.3098 25.5953 96.9562 21.6887 101.992 21.6887C105.013 21.6887 106.898 22.8255 108.535 24.3344L106.65 26.6012C105.391 25.3403 103.877 24.4584 101.992 24.4584C98.8482 24.4584 96.454 27.0973 96.454 30.3769C96.454 33.7805 98.7175 36.4262 101.992 36.4262C104.008 36.4262 105.391 35.6683 106.774 34.2834ZM123.005 31.7615V38.8167H125.901V21.9296H123.005V28.9848H114.955V21.9296H112.059V38.8167H114.955V31.7615H123.005ZM136.467 21.9296H139.233L146.656 38.9408H143.512L141.751 34.9102H133.825L132.064 38.9408H129.044L136.467 21.9296ZM134.96 32.1335H140.747L137.857 25.4572L134.96 32.1335ZM149.932 21.9296V38.8167H152.821V21.9296H149.932ZM160.245 22.0536L169.306 33.6493H169.43V21.9296H172.326V38.8167H169.808L160.499 26.8421V38.9408H157.603V22.0536H160.245Z" fill="white"/>
<path d="M107.756 2.06006V0.501465H117.043V2.06006H113.299V12.5015H111.494V2.06006H107.756Z" fill="white"/>
<path d="M104.387 0.501465V12.5015H102.723L96.623 3.70068H96.5117V12.5015H94.7012V0.501465H96.377L102.482 9.31396H102.594V0.501465H104.387Z" fill="white"/>
<path d="M82.8418 12.5015H80.9199L85.2383 0.501465H87.3301L91.6484 12.5015H89.7266L86.334 2.68115H86.2402L82.8418 12.5015ZM83.1641 7.80225H89.3984V9.32568H83.1641V7.80225Z" fill="white"/>
<path d="M69.873 12.5015V0.501465H74.1504C75.0801 0.501465 75.8516 0.661621 76.4648 0.981934C77.082 1.30225 77.543 1.74561 77.8477 2.31201C78.1523 2.87451 78.3047 3.5249 78.3047 4.26318C78.3047 4.99756 78.1504 5.64404 77.8418 6.20264C77.5371 6.75732 77.0762 7.18897 76.459 7.49756C75.8457 7.80615 75.0742 7.96045 74.1445 7.96045H70.9043V6.40186H73.9805C74.5664 6.40186 75.043 6.31787 75.4102 6.1499C75.7812 5.98193 76.0527 5.73779 76.2246 5.41748C76.3965 5.09717 76.4824 4.7124 76.4824 4.26318C76.4824 3.81006 76.3945 3.41748 76.2188 3.08545C76.0469 2.75342 75.7754 2.49951 75.4043 2.32373C75.0371 2.14404 74.5547 2.0542 73.957 2.0542H71.6836V12.5015H69.873ZM75.7969 7.0874L78.7617 12.5015H76.6992L73.793 7.0874H75.7969Z" fill="white"/>
<path d="M64.3154 4.29248C64.2021 3.93701 64.0498 3.61865 63.8584 3.3374C63.6709 3.05225 63.4463 2.81006 63.1846 2.61084C62.9229 2.40772 62.624 2.25342 62.2881 2.14795C61.9561 2.04248 61.5908 1.98975 61.1924 1.98975C60.5166 1.98975 59.9072 2.16357 59.3643 2.51123C58.8213 2.85889 58.3916 3.36865 58.0752 4.04053C57.7627 4.7085 57.6064 5.52686 57.6064 6.49561C57.6064 7.46826 57.7646 8.29053 58.0811 8.9624C58.3975 9.63428 58.8311 10.144 59.3818 10.4917C59.9326 10.8394 60.5596 11.0132 61.2627 11.0132C61.915 11.0132 62.4834 10.8804 62.9678 10.6147C63.4561 10.3491 63.833 9.97412 64.0986 9.48975C64.3682 9.00146 64.5029 8.42725 64.5029 7.76709L64.9717 7.85498H61.5381V6.36084H66.2549V7.72607C66.2549 8.73389 66.04 9.60889 65.6104 10.3511C65.1846 11.0894 64.5947 11.6597 63.8408 12.062C63.0908 12.4644 62.2314 12.6655 61.2627 12.6655C60.1768 12.6655 59.2236 12.4155 58.4033 11.9155C57.5869 11.4155 56.9502 10.7065 56.4932 9.78857C56.0361 8.8667 55.8076 7.77295 55.8076 6.50732C55.8076 5.55029 55.9404 4.69092 56.2061 3.9292C56.4717 3.16748 56.8447 2.521 57.3252 1.98975C57.8096 1.45459 58.3779 1.04639 59.0303 0.765137C59.6865 0.479981 60.4033 0.337402 61.1807 0.337402C61.8291 0.337402 62.4326 0.433106 62.9912 0.624512C63.5537 0.815918 64.0537 1.0874 64.4912 1.43896C64.9326 1.79053 65.2979 2.2085 65.5869 2.69287C65.876 3.17334 66.0713 3.70654 66.1729 4.29248H64.3154Z" fill="white"/>
</g>
<defs>
<clipPath id="clip0_83_1840">
<rect width="172" height="46" fill="white" transform="translate(0.326172 0.0427246)"/>
</clipPath>
</defs>
</svg>
