<svg width="129" height="47" viewBox="0 0 129 47" fill="none" xmlns="http://www.w3.org/2000/svg">
<g clip-path="url(#clip0_83_1841)">
<path d="M105.452 32.5406V13.5978L121.446 13.5447C123.554 13.5447 125.112 13.9875 126.122 14.8731C127.149 15.7409 127.663 17.0516 127.663 18.8051C127.663 20.5585 127.078 21.8426 125.909 22.6574C126.689 23.0825 127.264 23.6492 127.636 24.3577C128.008 25.0485 128.194 25.9429 128.194 27.041C128.194 28.8299 127.68 30.1937 126.653 31.1325C125.644 32.0535 124.085 32.514 121.977 32.514L105.452 32.5406ZM120.941 16.9453H109.703V21.1962H120.941C122.553 21.1962 123.359 20.47 123.359 19.0176C123.359 17.6361 122.553 16.9453 120.941 16.9453ZM121.472 24.5968H109.703V29.1133H121.472C123.084 29.1133 123.89 28.3517 123.89 26.8285C123.89 25.3407 123.084 24.5968 121.472 24.5968Z" fill="white"/>
<path d="M79.7402 32.5406V13.5447H84.0442L97.4874 27.2005V13.5447H101.738V32.5406H97.4343L83.9911 18.8582V32.5406H79.7402Z" fill="white"/>
<path d="M54.0811 32.5406V13.5978L70.0748 13.5447C72.1825 13.5447 73.7411 13.9875 74.7507 14.8731C75.778 15.7409 76.2916 17.0516 76.2916 18.8051C76.2916 20.5585 75.7071 21.8426 74.5382 22.6574C75.3175 23.0825 75.8931 23.6492 76.265 24.3577C76.637 25.0485 76.823 25.9429 76.823 27.041C76.823 28.8299 76.3093 30.1937 75.2821 31.1325C74.2725 32.0535 72.7138 32.514 70.6061 32.514L54.0811 32.5406ZM69.57 16.9453H58.3319V21.1962H69.57C71.1818 21.1962 71.9877 20.47 71.9877 19.0176C71.9877 17.6361 71.1818 16.9453 69.57 16.9453ZM70.1014 24.5968H58.3319V29.1133H70.1014C71.7131 29.1133 72.519 28.3517 72.519 26.8285C72.519 25.3407 71.7131 24.5968 70.1014 24.5968Z" fill="white"/>
<path d="M29.3047 32.5406V13.5447H45.2187C47.1847 13.5447 48.7079 14.0406 49.7884 15.0325C50.8865 16.0243 51.4355 17.5298 51.4355 19.549C51.4355 21.5681 50.8865 23.0736 49.7884 24.0655C48.7079 25.0573 47.1847 25.5533 45.2187 25.5533H33.5555V32.5406H29.3047ZM44.7139 16.9985H33.5555V22.0729L44.7139 22.0995C45.4932 22.0995 46.0866 21.9046 46.494 21.515C46.919 21.1253 47.1316 20.47 47.1316 19.549C47.1316 18.6102 46.919 17.9549 46.494 17.583C46.0866 17.1933 45.4932 16.9985 44.7139 16.9985Z" fill="white"/>
<path d="M10.848 32.6734C7.46502 32.6734 4.84368 31.8675 2.98394 30.2558C1.1242 28.6263 0.194336 26.2175 0.194336 23.0294C0.194336 19.859 1.1242 17.4679 2.98394 15.8561C4.84368 14.2266 7.52701 13.4119 11.0339 13.4119H15.8161C19.3231 13.4119 22.0064 14.2266 23.8661 15.8561C25.7259 17.4679 26.6557 19.859 26.6557 23.0294C26.6557 26.2175 25.7259 28.6263 23.8661 30.2558C22.0064 31.8675 19.3673 32.6734 15.949 32.6734H10.848ZM11.3262 16.8657C9.36018 16.8657 7.82811 17.2199 6.72998 17.9284C5.63185 18.6368 4.94109 19.7615 4.6577 21.3025H22.1924C21.909 19.7615 21.2182 18.6368 20.1201 17.9284C19.022 17.2199 17.4899 16.8657 15.5239 16.8657H11.3262ZM11.4059 29.2196H15.5239C17.5076 29.2196 19.0397 28.8654 20.1201 28.1569C21.2182 27.4484 21.909 26.3149 22.1924 24.7563H4.6577C4.94109 26.3149 5.63185 27.4484 6.72998 28.1569C7.82811 28.8654 9.38675 29.2196 11.4059 29.2196Z" fill="white"/>
</g>
<defs>
<clipPath id="clip0_83_1841">
<rect width="128.552" height="46" fill="white" transform="translate(0.194336 0.0427246)"/>
</clipPath>
</defs>
</svg>
