<svg width="111" height="47" viewBox="0 0 111 47" fill="none" xmlns="http://www.w3.org/2000/svg">
<g clip-path="url(#clip0_83_1851)">
<path fill-rule="evenodd" clip-rule="evenodd" d="M17.1216 8.95745L26.7369 14.0442C28.2129 14.9279 29.5941 15.9589 29.6573 18.9941V21.4296H25.8777V18.0999L15.2398 12.3977L4.52282 18.0999V21.4296H0.743164V18.9941C0.801152 15.9747 2.17174 14.9384 3.63722 14.06L13.3526 8.95218C14.5335 8.33147 15.9409 8.33147 17.1216 8.95745ZM17.1269 33.9017L25.8724 29.015V25.3748H29.652V27.8051C29.5941 30.8403 28.2076 31.8766 26.7317 32.755L17.1216 37.8418C15.9462 38.4678 14.5335 38.4678 13.3526 37.8469L3.63722 32.7393C2.17174 31.8608 0.806422 30.8192 0.743164 27.8051V25.3748H4.52809V29.015L13.3526 33.907V29.9565C10.274 29.2359 8.25505 26.7424 8.25505 23.397C8.25505 19.3465 11.0595 16.6269 15.2398 16.6269C19.42 16.6269 22.2246 19.3465 22.2246 23.397C22.2246 26.7372 20.2003 29.2359 17.1269 29.9565V33.9017ZM15.2398 19.9567C12.9994 19.9567 11.7659 21.177 11.7659 23.397C11.7659 25.5536 13.0626 26.8372 15.2398 26.8372C17.4169 26.8372 18.7137 25.5484 18.7137 23.397C18.7137 21.177 17.4801 19.9567 15.2398 19.9567ZM95.7617 15.2068H90.4954L83.7268 22.1293V11.7929H79.3831V32.7236H83.7268V27.4844L85.9619 25.2014L91.8555 32.7236H96.7317L88.6715 22.4397L95.7617 15.2068ZM102.726 17.2738C103.548 16.4532 105.757 14.7489 109.927 14.7489H110.728L110.744 18.6257L102.726 18.6573V32.7233H98.3134V15.2013V15.1907H102.726V17.2738ZM69.6207 14.744C66.2891 14.744 64.1964 16.8954 64.0434 17.0638V15.1911H59.6312V15.1964V32.7237H64.0434V18.2684H67.3223C67.491 18.2684 67.6545 18.2736 67.8127 18.2789C68.9144 18.3157 69.7525 18.4946 70.3745 18.8207C70.5802 18.9364 70.7699 19.0679 70.9439 19.21C71.877 20.041 72.1248 21.4562 72.1248 23.5655V32.729H76.4684V22.2557C76.4631 17.9159 74.4706 14.744 69.6207 14.744ZM50.1895 15.7748C50.938 16.2272 51.5759 16.8269 52.1189 17.5896V15.1857H56.5311V32.7183H52.1189V30.1407C51.6127 31.1139 50.6902 31.9766 49.3882 32.5499C49.0983 32.6815 48.7873 32.792 48.4604 32.8919C48.3867 32.913 48.3129 32.9341 48.2337 32.955L48.1704 32.9708C47.4272 33.155 46.6471 33.2549 45.8458 33.2549C44.5701 33.2549 43.3523 33.0023 42.2401 32.5499C38.8241 31.1612 36.4203 27.8525 36.4203 23.9915C36.4203 18.8784 40.6429 14.728 45.8458 14.728C47.4115 14.728 48.8874 15.1068 50.1895 15.7748ZM40.9485 23.9968C40.9485 27.3317 43.1731 29.6463 46.6102 29.6463C49.6043 29.6463 52.2717 27.5264 52.2717 23.9968C52.2717 20.3933 49.694 18.3471 46.6102 18.3471C43.1099 18.3471 40.9485 20.4565 40.9485 23.9968Z" fill="white"/>
</g>
<defs>
<clipPath id="clip0_83_1851">
<rect width="110" height="46" fill="white" transform="translate(0.743164 0.399658)"/>
</clipPath>
</defs>
</svg>
