<svg width="171" height="47" viewBox="0 0 171 47" fill="none" xmlns="http://www.w3.org/2000/svg">
<g clip-path="url(#clip0_83_1850)">
<path d="M160.965 30.3943C160.399 29.8164 159.959 29.1281 159.67 28.3723C159.382 27.6165 159.253 26.8094 159.29 26.0014V25.6854C159.272 24.5484 159.514 23.4223 159.999 22.3935C160.432 21.4684 161.127 20.6908 161.998 20.1574C162.89 19.6263 163.913 19.3544 164.951 19.3724C165.679 19.335 166.407 19.4572 167.083 19.7304C167.759 20.0035 168.368 20.4211 168.866 20.9538C169.889 22.2155 170.399 23.8164 170.294 25.4374V26.7702H162.571C162.644 27.5038 162.98 28.1861 163.518 28.6903C164.067 29.1797 164.783 29.4384 165.518 29.4123C166.079 29.4373 166.638 29.3262 167.147 29.0883C167.657 28.8504 168.101 28.4929 168.442 28.0462L170.032 29.8416C169.531 30.5473 168.85 31.1066 168.06 31.4621C167.196 31.8573 166.255 32.0559 165.305 32.0438C164.508 32.0752 163.713 31.9452 162.967 31.6618C162.221 31.3784 161.54 30.9473 160.965 30.3943ZM163.374 22.6607C162.933 23.196 162.666 23.8529 162.607 24.5439H167.11V24.2832C167.136 23.6682 166.928 23.0664 166.528 22.5983C166.319 22.3923 166.069 22.2329 165.794 22.1306C165.519 22.0282 165.226 21.9853 164.933 22.0046C164.641 21.9944 164.351 22.0479 164.081 22.1612C163.812 22.2745 163.571 22.4449 163.374 22.6607ZM148.991 30.3773C147.927 29.0866 147.391 27.4414 147.49 25.7718V25.5593C147.405 23.924 147.936 22.3164 148.978 21.053C149.493 20.488 150.127 20.044 150.834 19.753C151.541 19.4619 152.304 19.331 153.067 19.3695C154.407 19.3053 155.718 19.7743 156.713 20.6739C157.174 21.1241 157.536 21.6653 157.776 22.263C158.016 22.8608 158.129 23.502 158.108 24.1457H155.072C155.081 23.574 154.873 23.02 154.489 22.5962C154.271 22.3879 154.012 22.2277 153.729 22.1259C153.445 22.0241 153.143 21.9829 152.843 22.0051C152.542 22.0273 152.25 22.1123 151.984 22.2546C151.719 22.397 151.486 22.5935 151.301 22.8314C150.851 23.6554 150.651 24.5922 150.723 25.5281V25.8682C150.649 26.8094 150.848 27.752 151.295 28.5833C151.49 28.8578 151.752 29.0778 152.056 29.2223C152.36 29.3668 152.696 29.431 153.032 29.4087C153.562 29.4322 154.082 29.2551 154.489 28.9128C154.674 28.7468 154.822 28.543 154.923 28.3151C155.023 28.0872 155.074 27.8404 155.071 27.5913H158.107C158.106 28.3989 157.873 29.1892 157.435 29.8679C156.992 30.559 156.366 31.114 155.626 31.4713C154.837 31.8558 153.968 32.0499 153.089 32.0381C152.326 32.077 151.563 31.9485 150.855 31.6616C150.146 31.3747 149.509 30.9364 148.988 30.3773H148.991ZM123.987 31.0029C123.61 30.68 123.309 30.2773 123.106 29.8239C122.904 29.3705 122.805 28.8778 122.816 28.3814C122.786 27.8046 122.902 27.2297 123.151 26.7089C123.401 26.188 123.776 25.7378 124.244 25.3991C125.478 24.629 126.921 24.262 128.373 24.3491H129.861V23.6491C129.885 23.16 129.732 22.6785 129.429 22.2936C129.254 22.1131 129.041 21.9738 128.806 21.8859C128.571 21.798 128.318 21.7638 128.068 21.7856C127.607 21.7588 127.151 21.8992 126.785 22.181C126.63 22.3146 126.508 22.4816 126.427 22.6694C126.347 22.8572 126.31 23.0609 126.32 23.265H123.083C123.083 22.5573 123.311 21.8684 123.733 21.3003C124.204 20.6686 124.839 20.1784 125.57 19.8832C126.414 19.5303 127.322 19.3555 128.237 19.3695C129.521 19.3001 130.786 19.7034 131.794 20.5032C132.238 20.902 132.587 21.3956 132.815 21.9475C133.043 22.4994 133.144 23.0954 133.11 23.6916V28.9879C133.066 29.8904 133.231 30.7908 133.592 31.6194V31.8114H130.321C130.155 31.4657 130.046 31.0959 129.996 30.716C129.615 31.1482 129.143 31.4909 128.615 31.7193C128.086 31.9478 127.513 32.0564 126.937 32.0374C125.859 32.0768 124.805 31.7074 123.987 31.0029ZM126.065 27.9562L126.054 28.1483C126.049 28.3365 126.084 28.5238 126.157 28.6973C126.231 28.8707 126.341 29.0264 126.48 29.1537C126.802 29.4312 127.22 29.573 127.644 29.549C128.105 29.5535 128.559 29.4429 128.967 29.2273C129.346 29.0364 129.658 28.7354 129.863 28.3636V26.2607H128.656C127.034 26.2607 126.17 26.8259 126.065 27.9562ZM64.1719 31.0029C63.7947 30.68 63.494 30.2773 63.2914 29.8239C63.0889 29.3705 62.9896 28.8778 63.0007 28.3814C62.9714 27.8046 63.0867 27.2297 63.3362 26.7089C63.5857 26.188 63.9613 25.7378 64.4291 25.3991C65.6629 24.629 67.1059 24.262 68.5577 24.3491H70.0456V23.6491C70.0703 23.16 69.917 22.6785 69.6141 22.2936C69.4392 22.113 69.2262 21.9737 68.9906 21.8858C68.755 21.7979 68.5028 21.7637 68.2524 21.7856C67.7912 21.7589 67.336 21.8993 66.9699 22.181C66.8152 22.3146 66.693 22.4816 66.6125 22.6694C66.5319 22.8572 66.4952 23.0609 66.5051 23.265H63.27C63.2699 22.5573 63.4977 21.8684 63.9197 21.3003C64.3907 20.6686 65.0262 20.1784 65.7569 19.8832C66.6011 19.5303 67.509 19.3555 68.4238 19.3695C69.7081 19.3001 70.9734 19.7034 71.9806 20.5032C72.4248 20.9021 72.7738 21.3957 73.0016 21.9476C73.2295 22.4995 73.3305 23.0955 73.2971 23.6916V28.9879C73.2534 29.8904 73.4183 30.7908 73.7789 31.6194V31.8114H70.5076C70.3423 31.4656 70.2326 31.0959 70.1824 30.716C69.8017 31.1482 69.3301 31.4908 68.8014 31.7193C68.2727 31.9478 67.7 32.0564 67.1244 32.0374C66.045 32.0774 64.9903 31.7079 64.1719 31.0029ZM66.25 27.9562L66.2387 28.1483C66.2331 28.3365 66.2682 28.5238 66.3416 28.6973C66.4149 28.8708 66.5248 29.0265 66.6638 29.1537C66.9863 29.4312 67.4038 29.573 67.8286 29.549C68.2893 29.5534 68.7437 29.4429 69.1508 29.2273C69.5298 29.0364 69.8423 28.7354 70.0471 28.3636V26.2607H68.8383C67.2177 26.2607 66.3549 26.8259 66.25 27.9562ZM142.529 31.8184V24.0012C142.577 23.4598 142.417 22.9202 142.08 22.4935C141.876 22.3195 141.639 22.1884 141.384 22.1079C141.128 22.0274 140.859 21.9993 140.592 22.0251C140.175 22.0085 139.761 22.1097 139.398 22.3174C139.036 22.525 138.739 22.8306 138.542 23.1991V31.8163H135.305V19.5956H138.352L138.452 21.0077C138.861 20.4778 139.391 20.0529 139.996 19.768C140.602 19.4832 141.267 19.3466 141.936 19.3695C142.47 19.328 143.005 19.4092 143.502 19.607C143.999 19.8047 144.445 20.1137 144.804 20.5103C145.503 21.5048 145.843 22.7077 145.768 23.9211V31.8163L142.529 31.8184ZM117.837 31.8184V24.0012C117.885 23.4598 117.725 22.9205 117.388 22.4935C117.184 22.3196 116.948 22.1885 116.692 22.108C116.436 22.0276 116.167 21.9994 115.9 22.0251C115.483 22.0086 115.069 22.1099 114.707 22.3175C114.344 22.5252 114.047 22.8307 113.85 23.1991V31.8163H110.613V19.5956H113.659L113.76 21.0077C114.169 20.4778 114.698 20.0529 115.304 19.7681C115.91 19.4833 116.575 19.3466 117.244 19.3695C117.777 19.328 118.313 19.4092 118.81 19.607C119.307 19.8047 119.753 20.1137 120.112 20.5103C120.811 21.5048 121.151 22.7077 121.076 23.9211V31.8163L117.837 31.8184ZM104.993 31.8184V19.5956H108.241V31.8163L104.993 31.8184ZM92.6967 31.8184V15.3727H103.317V18.1176H96.0573V22.3638H102.511V25.0973H96.058V31.817L92.6967 31.8184ZM82.3444 31.8184L80.1826 27.9789L78.0315 31.8184H74.5477L78.1442 25.5834L74.7028 19.5956H78.1746L80.1685 23.2438L82.2076 19.5956H85.6695L82.2189 25.5812L85.8155 31.8163L82.3444 31.8184ZM55.6801 31.8184V19.5956H58.7382L58.8282 21.053C59.0748 20.5472 59.4589 20.121 59.9364 19.8233C60.4139 19.5256 60.9656 19.3683 61.5284 19.3695C61.87 19.3671 62.21 19.4168 62.5366 19.5169L62.492 22.6571C62.1059 22.6008 61.7165 22.5705 61.3264 22.5664C60.1016 22.5664 59.2986 22.9845 58.9174 23.8205V31.8163L55.6801 31.8184ZM43.8477 31.8184V15.3727H54.4643V18.1176H47.204V22.3638H53.6573V25.0973H47.204V31.817L43.8477 31.8184ZM105.3 17.6542C105.136 17.4975 105.007 17.3078 104.921 17.0976C104.836 16.8874 104.796 16.6615 104.804 16.4348C104.797 16.2105 104.836 15.9872 104.92 15.7791C105.004 15.5709 105.13 15.3826 105.291 15.226C105.664 14.9189 106.132 14.751 106.616 14.751C107.099 14.751 107.568 14.9189 107.941 15.226C108.104 15.3814 108.232 15.5693 108.318 15.7776C108.403 15.9858 108.444 16.2098 108.437 16.4348C108.445 16.6615 108.405 16.8874 108.319 17.0976C108.234 17.3078 108.105 17.4975 107.941 17.6542C107.571 17.9611 107.105 18.1292 106.624 18.1292C106.144 18.1292 105.678 17.9611 105.308 17.6542H105.3Z" fill="white"/>
<path fill-rule="evenodd" clip-rule="evenodd" d="M34.0127 23.3997C34.0127 32.4518 26.6745 39.79 17.6223 39.79C8.5702 39.79 1.232 32.4518 1.232 23.3997C1.232 14.3475 8.5702 7.00934 17.6223 7.00934C26.6745 7.00934 34.0127 14.3475 34.0127 23.3997ZM34.9361 23.3997C34.9361 32.9618 27.1844 40.7134 17.6223 40.7134C8.06022 40.7134 0.308594 32.9618 0.308594 23.3997C0.308594 13.8376 8.06022 6.08594 17.6223 6.08594C27.1844 6.08594 34.9361 13.8376 34.9361 23.3997ZM17.6241 32.0683C19.2732 32.0683 20.887 31.5899 22.2697 30.6911L25.2654 33.7124L27.8534 31.1025L24.8568 28.0826C25.7488 26.6835 26.2227 25.0587 26.2227 23.3995C26.2227 21.7402 25.7488 20.1154 24.8568 18.7163L27.8534 15.6964L25.2654 13.0865L22.2697 16.1073C20.8871 15.2083 19.2733 14.7297 17.6241 14.7297C15.9749 14.7297 14.3611 15.2083 12.9785 16.1073L9.98186 13.0865L7.39338 15.6964L10.3896 18.7168C9.49809 20.1157 9.0245 21.7401 9.0245 23.399C9.0245 25.0579 9.49809 26.6823 10.3896 28.0812L7.39338 31.1021L9.98186 33.712L12.9785 30.6911C14.3612 31.5899 15.975 32.0683 17.6241 32.0683ZM13.2708 20.5734C13.811 19.73 14.5816 19.0591 15.4914 18.6402C16.1607 18.3354 16.8877 18.1777 17.6232 18.1777C18.3587 18.1777 19.0856 18.3354 19.755 18.6402C20.6648 19.0591 21.4354 19.73 21.9756 20.5734C22.5158 21.4168 22.8029 22.3974 22.8029 23.399C22.8029 24.4006 22.5158 25.3812 21.9756 26.2246C21.4354 27.068 20.6648 27.7389 19.755 28.1578C19.0857 28.4629 18.3587 28.6208 17.6232 28.6208C16.8876 28.6208 16.1607 28.4629 15.4914 28.1578C14.5816 27.7389 13.811 27.068 13.2708 26.2246C12.7306 25.3812 12.4435 24.4006 12.4435 23.399C12.4435 22.3974 12.7306 21.4168 13.2708 20.5734Z" fill="white"/>
</g>
<defs>
<clipPath id="clip0_83_1850">
<rect width="170" height="46" fill="white" transform="translate(0.308594 0.399658)"/>
</clipPath>
</defs>
</svg>
