<svg width="163" height="47" viewBox="0 0 163 47" fill="none" xmlns="http://www.w3.org/2000/svg">
<path fill-rule="evenodd" clip-rule="evenodd" d="M4.98129 31.3456C8.58395 32.4592 13.8454 29.1528 13.7248 22.7434C13.72 22.4865 13.7145 22.2303 13.7089 21.9751C13.5935 16.6423 13.4874 11.7374 20.069 9.75536C12.0775 7.28526 2.98736 13.1275 0.980825 20.7757C-0.269228 25.5405 1.37863 30.232 4.98129 31.3456ZM18.473 25.0886C19.0112 18.7018 24.583 15.9799 28.0514 17.475C31.5197 18.97 32.6767 23.8129 30.9444 28.4168C28.1636 35.8067 18.5241 40.6384 10.8304 37.322C17.579 36.0592 17.9771 31.1701 18.4099 25.8545C18.4307 25.6 18.4515 25.3446 18.473 25.0886ZM43.1557 18.1097H45.5392V28.9454H55.3299V30.9439H43.1557V18.1097ZM57.7325 17.2663H60.0609V19.0265H57.7325V17.2663ZM57.7325 20.2731H60.0609V30.9439H57.7325V20.2731ZM74.7672 20.9149L74.1439 22.5283C72.6527 22.0272 70.9414 21.7766 69.0102 21.7766C68.6679 21.7766 68.3563 21.7888 68.0752 21.8133C67.794 21.8255 67.5129 21.8499 67.2318 21.8866C66.9629 21.9233 66.7245 21.9783 66.5167 22.0516C66.3212 22.1128 66.1439 22.1983 65.985 22.3083C65.8383 22.4061 65.7222 22.5283 65.6367 22.675C65.5633 22.8094 65.5266 22.9684 65.5266 23.1517C65.5266 23.6162 65.8444 23.9401 66.48 24.1234C66.9078 24.2457 67.904 24.3923 69.4686 24.5635C70.0919 24.6246 70.5991 24.6796 70.9903 24.7285C71.3814 24.7774 71.8154 24.8446 72.292 24.9302C72.781 25.0157 73.1721 25.1074 73.4655 25.2052C73.7588 25.303 74.0583 25.4313 74.3638 25.5902C74.6816 25.7369 74.92 25.908 75.0789 26.1036C75.2378 26.2991 75.3723 26.5375 75.4823 26.8186C75.5923 27.0875 75.6473 27.3931 75.6473 27.7353C75.6473 28.8843 75.0972 29.746 73.9972 30.3205C72.9093 30.895 71.3692 31.1822 69.3769 31.1822C66.6267 31.1822 64.3105 30.6261 62.4281 29.5138L63.3632 27.9737C65.1233 28.9393 67.2134 29.4222 69.6336 29.4222C72.1026 29.4222 73.3371 28.8965 73.3371 27.8454C73.3371 27.7109 73.3188 27.5886 73.2822 27.4787C73.2455 27.3687 73.1782 27.2708 73.0805 27.1854C72.9827 27.0998 72.8788 27.0264 72.7688 26.9653C72.671 26.9042 72.5243 26.8492 72.3287 26.8003C72.1332 26.7391 71.9498 26.6902 71.7787 26.6536C71.6198 26.617 71.3876 26.5803 71.082 26.5436C70.7886 26.4947 70.5258 26.458 70.2936 26.4336C70.0614 26.4091 69.7436 26.3786 69.3402 26.3419C68.9002 26.293 68.5457 26.2564 68.2768 26.2319C68.0079 26.2075 67.6718 26.1708 67.2684 26.1219C66.8773 26.073 66.5595 26.0242 66.315 25.9753C66.0706 25.9141 65.7895 25.8408 65.4716 25.7552C65.1538 25.6575 64.8971 25.5597 64.7016 25.4619C64.506 25.3518 64.2983 25.2235 64.0782 25.0769C63.8704 24.9302 63.7115 24.7652 63.6015 24.5818C63.4915 24.3985 63.3937 24.1906 63.3081 23.9584C63.2348 23.714 63.1982 23.4572 63.1982 23.1884C63.1982 21.0738 65.1844 20.0165 69.1568 20.0165C71.1615 20.0165 73.0316 20.316 74.7672 20.9149ZM85.5278 22.0516H81.4208V28.2304C81.4208 28.6459 81.5369 28.9393 81.7691 29.1104C82.0014 29.2693 82.3559 29.3488 82.8326 29.3488C83.8471 29.3488 84.8433 29.0615 85.8211 28.4871V30.4122C84.7332 30.8767 83.621 31.1089 82.4842 31.1089C81.5064 31.1089 80.7057 30.895 80.0824 30.4672C79.4713 30.0271 79.1656 29.3671 79.1656 28.4871V22.0516H76.8005V20.2731H79.1656V17.8897L81.2191 17.523L81.3108 20.2731H85.5278V22.0516ZM88.6136 21.0065C90.1048 20.3465 92.0239 20.0165 94.3707 20.0165C95.3119 20.0165 96.1308 20.0715 96.8279 20.1815C97.5368 20.2915 98.1659 20.4688 98.7162 20.7132C99.2781 20.9455 99.6997 21.2755 99.9811 21.7033C100.274 22.131 100.421 22.6444 100.421 23.2434V28.5788L100.696 30.9439H98.5692L98.2946 29.9355C96.9249 30.73 95.0491 31.1273 92.6656 31.1273C90.93 31.1273 89.6343 30.8828 88.7786 30.3939C87.9231 29.905 87.4953 29.1349 87.4953 28.0837V27.9003C87.4953 27.2403 87.6664 26.7086 88.0087 26.3053C88.3509 25.9019 88.962 25.5597 89.8421 25.2786C90.7344 24.9974 92.0116 24.7529 93.674 24.5452C94.7741 24.3985 95.5991 24.2824 96.1492 24.1968C96.6992 24.1112 97.1334 24.0196 97.4513 23.9217C97.7692 23.8239 97.9584 23.7384 98.0189 23.6651C98.0804 23.5917 98.1111 23.4756 98.1111 23.3167V23.0234C98.1111 22.1799 96.8644 21.7583 94.3707 21.7583C92.4272 21.7583 90.7161 22.0456 89.2371 22.62L88.6136 21.0065ZM98.1111 25.1868C97.9642 25.3213 97.6895 25.4313 97.2861 25.5168C96.8952 25.5902 95.7641 25.7613 93.894 26.0302C92.7084 26.2014 91.8284 26.3664 91.2538 26.5252C90.6794 26.6842 90.2943 26.8552 90.0988 27.0386C89.9032 27.2219 89.8055 27.4787 89.8055 27.8087V27.9554C89.8177 28.4809 90.0743 28.8538 90.5755 29.0738C91.0888 29.2815 91.8773 29.3855 92.9406 29.3855C94.8719 29.3855 96.5953 29.0615 98.1111 28.4137V25.1868ZM120.038 18.1097C120.869 18.1097 121.658 18.2502 122.404 18.5315C123.162 18.8003 123.827 19.1853 124.402 19.6865C124.989 20.1877 125.453 20.8355 125.795 21.63C126.137 22.4245 126.309 23.3045 126.309 24.2701V24.8201C126.309 25.798 126.131 26.6842 125.777 27.4787C125.435 28.2732 124.97 28.921 124.383 29.4222C123.809 29.911 123.162 30.2899 122.44 30.5589C121.732 30.8156 120.998 30.9439 120.24 30.9439H110.138V18.1097H120.038ZM123.871 24.7652V24.3068C123.871 23.5734 123.76 22.9317 123.54 22.3816C123.32 21.8316 123.009 21.3977 122.606 21.0799C122.214 20.7499 121.761 20.5054 121.248 20.3465C120.735 20.1877 120.167 20.1081 119.544 20.1081H112.521V28.9454H119.525C120.833 28.9454 121.884 28.6032 122.679 27.9187C123.473 27.2342 123.871 26.183 123.871 24.7652ZM141.979 30.9439L140.457 28.2304H131.161L129.639 30.9439H127.054L134.48 18.1097H137.138L144.564 30.9439H141.979ZM139.393 26.3602L135.91 20.1632L135.873 20.0349H135.745L135.708 20.1632L132.206 26.3602H139.393ZM151.236 18.0547C152.054 17.9325 152.959 17.8713 153.949 17.8713C154.951 17.8713 155.861 17.9325 156.681 18.0547C157.5 18.1769 158.282 18.3908 159.028 18.6965C159.773 19.002 160.397 19.3992 160.898 19.8882C161.411 20.3771 161.814 21.0188 162.108 21.8133C162.414 22.5955 162.566 23.5001 162.566 24.5268C162.566 25.5535 162.414 26.4641 162.108 27.2586C161.814 28.0409 161.411 28.6766 160.898 29.1654C160.397 29.6544 159.773 30.0516 159.028 30.3572C158.282 30.6628 157.5 30.8767 156.681 30.9989C155.861 31.1211 154.951 31.1822 153.949 31.1822C152.959 31.1822 152.054 31.1211 151.236 30.9989C150.429 30.8767 149.646 30.6628 148.888 30.3572C148.143 30.0516 147.513 29.6544 147 29.1654C146.499 28.6766 146.095 28.0409 145.79 27.2586C145.497 26.4641 145.35 25.5535 145.35 24.5268C145.35 23.5001 145.497 22.5955 145.79 21.8133C146.095 21.0188 146.499 20.3771 147 19.8882C147.513 19.3992 148.143 19.002 148.888 18.6965C149.646 18.3908 150.429 18.1769 151.236 18.0547ZM156.717 20.1081C155.972 19.9615 155.049 19.8882 153.949 19.8882C152.861 19.8882 151.945 19.9615 151.198 20.1081C150.466 20.2549 149.835 20.5054 149.31 20.8599C148.785 21.2144 148.4 21.6911 148.156 22.29C147.923 22.8889 147.807 23.6345 147.807 24.5268C147.807 25.4191 147.923 26.1647 148.156 26.7636C148.4 27.3626 148.785 27.8392 149.31 28.1937C149.835 28.5481 150.466 28.7987 151.198 28.9454C151.945 29.0921 152.868 29.1654 153.967 29.1654C154.835 29.1654 155.587 29.1227 156.223 29.0371C156.87 28.9393 157.445 28.7865 157.946 28.5788C158.459 28.3587 158.869 28.0715 159.174 27.717C159.492 27.3504 159.73 26.9103 159.89 26.3969C160.048 25.8714 160.128 25.2479 160.128 24.5268C160.128 23.6345 160.006 22.8889 159.761 22.29C159.528 21.6911 159.15 21.2144 158.625 20.8599C158.098 20.5054 157.463 20.2549 156.717 20.1081Z" fill="white"/>
</svg>
