<svg width="115" height="47" viewBox="0 0 115 47" fill="none" xmlns="http://www.w3.org/2000/svg">
<g clip-path="url(#clip0_83_1848)">
<g clip-path="url(#clip1_83_1848)">
<path d="M10.4555 28.1736C10.3558 28.5513 10.0318 28.6426 9.74515 28.3746L4.05635 23.1841C3.76351 22.916 3.82581 22.5809 4.19967 22.4347L12.1814 19.3155C12.5553 19.1693 12.7733 19.3643 12.6737 19.742L10.4555 28.1736Z" fill="white"/>
<path d="M5.75726 33.1084C5.45195 33.3643 5.14664 33.2608 5.07809 32.8709L3.52037 24.4332C3.45184 24.0494 3.63253 23.9519 3.92537 24.2199L9.33999 29.1607C9.63286 29.4288 9.62661 29.8552 9.3213 30.1111L5.75726 33.1084Z" fill="white"/>
<path d="M12.2868 17.6343C12.5485 17.9328 12.455 18.2922 12.0874 18.4384L4.14924 21.5393C3.77541 21.6855 3.58848 21.5028 3.72555 21.1372L6.98428 12.5717C7.12138 12.2061 7.45161 12.1452 7.71331 12.4437L12.2868 17.6343Z" fill="white"/>
<path d="M3.97506 31.6707C4.04361 32.0544 3.92521 32.1033 3.70714 31.7742L0.629088 27.1258C0.411007 26.7969 0.4297 26.2729 0.666472 25.9562L2.04349 24.1529C2.28027 23.8422 2.53573 23.897 2.6105 24.2808L3.97506 31.6707Z" fill="white"/>
<path d="M3.00295 20.6133C2.86588 20.9788 2.64779 20.9788 2.51694 20.6072L1.46392 17.5246C1.3393 17.1529 1.47638 16.6351 1.77547 16.3731L5.52646 13.0529C5.82552 12.7909 5.95015 12.8762 5.81307 13.2417L3.00295 20.6133Z" fill="white"/>
<path d="M2.01225 21.8012C2.13686 22.1729 2.04963 22.7333 1.80663 23.044L0.734918 24.4574C0.498146 24.7681 0.336144 24.7072 0.373529 24.3173L0.89069 19.4192C0.934306 19.0293 1.07139 19.0171 1.196 19.3887L2.01225 21.8012Z" fill="white"/>
<path d="M6.24313 10.7745C6.37398 10.9268 6.24313 11.2619 5.94406 11.53L4.26172 13.0226C3.96263 13.2845 3.91902 13.2419 4.15581 12.9312L5.5702 11.0731C5.80697 10.7563 6.11228 10.6222 6.24313 10.7745Z" fill="white"/>
<path d="M16.8858 36.8369C16.6864 37.1719 16.3313 37.1901 16.107 36.8673L11.6955 30.5923C11.4712 30.2694 11.6083 29.9709 12.0071 29.9343L20.8673 29.0388C21.2661 28.9961 21.4281 29.2398 21.2225 29.581L16.8858 36.8369Z" fill="white"/>
<path d="M15.0408 36.8429C15.2651 37.1657 15.1405 37.3241 14.7666 37.2024L6.46086 34.4427C6.08078 34.3147 6.01848 34.0039 6.32379 33.7482L9.88161 30.7507C10.1869 30.4949 10.6168 30.5497 10.8474 30.8726L15.0408 36.8429Z" fill="white"/>
<path d="M21.0539 27.5826C21.3155 27.8811 21.2034 28.1553 20.8046 28.1979L11.8135 29.1057C11.4147 29.1483 11.1717 28.8681 11.2714 28.4904L13.5207 19.9309C13.6204 19.5531 13.9133 19.4861 14.175 19.7785L21.0539 27.5826Z" fill="white"/>
<path d="M27.5086 34.9179C27.7704 35.2162 27.6644 35.5208 27.2718 35.6061L18.1249 37.4887C17.7324 37.5678 17.5766 37.3608 17.7822 37.0195L22.094 29.8064C22.2934 29.4714 22.6735 29.4348 22.9352 29.7333L27.5086 34.9179Z" fill="white"/>
<path d="M12.7979 39.7305C12.4428 39.9134 11.9132 39.8525 11.6141 39.5966L7.36462 35.9291C7.06555 35.6672 7.12786 35.5634 7.50794 35.6854L14.7731 38.0978C15.1532 38.2258 15.1719 38.4755 14.823 38.6643L12.7979 39.7305Z" fill="white"/>
<path d="M22.6612 40.0778C22.3497 40.3277 21.8076 40.3824 21.4462 40.2058L18.4865 38.7315C18.1314 38.5549 18.1563 38.3416 18.5488 38.2623L26.431 36.6418C26.8235 36.5627 26.8919 36.6967 26.5803 36.9464L22.6612 40.0778Z" fill="white"/>
<path d="M14.4119 40.2543C14.0131 40.2361 13.9757 40.0717 14.3247 39.8829L15.9135 39.0482C16.2687 38.8654 16.8482 38.8594 17.2033 39.036L19.5212 40.1875C19.8764 40.3641 19.8452 40.498 19.4402 40.4798L14.4119 40.2543Z" fill="white"/>
<path d="M28.986 36.5869C29.1169 36.7393 28.9425 37.0135 28.5873 37.1963L26.4999 38.2867C26.1447 38.4695 26.1136 38.4207 26.419 38.1709L28.1823 36.7638C28.4874 36.5138 28.8489 36.4348 28.986 36.5869Z" fill="white"/>
<path d="M23.7019 27.4913C23.328 27.6376 23.11 27.4426 23.2097 27.0649L25.4278 18.6333C25.5276 18.2556 25.8517 18.1642 26.1444 18.4323L31.8332 23.6228C32.1261 23.8909 32.0637 24.2259 31.6898 24.3721L23.7019 27.4913Z" fill="white"/>
<path d="M32.3687 22.3739C32.4371 22.7577 32.2564 22.8552 31.9637 22.5872L26.549 17.6464C26.2562 17.3784 26.2625 16.9519 26.5676 16.696L30.1255 13.6987C30.4309 13.4428 30.7361 13.5464 30.8048 13.9363L32.3687 22.3739Z" fill="white"/>
<path d="M28.8988 34.2354C28.7616 34.601 28.4313 34.6619 28.1697 34.3633L23.5962 29.1729C23.3345 28.8743 23.428 28.5149 23.7956 28.3687L31.7338 25.2678C32.1077 25.1215 32.2946 25.3043 32.1575 25.6698L28.8988 34.2354Z" fill="white"/>
<path d="M35.2541 19.6811C35.4722 20.0101 35.4535 20.534 35.2168 20.8508L33.8398 22.648C33.6029 22.9587 33.3475 22.9039 33.2728 22.5201L31.908 15.1363C31.8396 14.7525 31.9581 14.7038 32.1761 15.0328L35.2541 19.6811Z" fill="white"/>
<path d="M34.4125 29.2886C34.537 29.6602 34.4001 30.1781 34.1009 30.4401L30.3499 33.7602C30.0509 34.0224 29.9262 33.937 30.0634 33.5713L32.8736 26.1938C33.0104 25.8283 33.2285 25.8283 33.3594 26.1999L34.4125 29.2886Z" fill="white"/>
<path d="M34.9986 27.3818C34.9548 27.7717 34.8179 27.7839 34.6931 27.4123L33.8708 24.9998C33.7461 24.6281 33.8396 24.0677 34.0764 23.757L35.1544 22.3436C35.3911 22.0329 35.5531 22.0938 35.5155 22.4837L34.9986 27.3818Z" fill="white"/>
<path d="M30.3127 35.734C30.076 36.0508 29.7706 36.1788 29.6337 36.0326C29.5028 35.8802 29.6335 35.5452 29.9327 35.2772L31.6212 33.7845C31.9204 33.5226 31.964 33.5652 31.7273 33.8758L30.3127 35.734Z" fill="white"/>
<path d="M24.1877 16.2148C24.412 16.5377 24.2749 16.8362 23.8761 16.8727L15.0158 17.7683C14.617 17.811 14.455 17.5673 14.6606 17.2261L18.9973 9.97032C19.1967 9.63523 19.5519 9.61697 19.7762 9.93984L24.1877 16.2148Z" fill="white"/>
<path d="M26.0012 16.0564C25.6961 16.3122 25.2662 16.2574 25.0356 15.9345L20.8422 9.96416C20.6179 9.64129 20.7425 9.48289 21.1163 9.60472L29.422 12.3645C29.8021 12.4924 29.8645 12.8031 29.5591 13.059L26.0012 16.0564Z" fill="white"/>
<path d="M22.3626 26.8761C22.2629 27.2538 21.9701 27.3208 21.7084 27.0284L14.8357 19.2244C14.574 18.9258 14.6862 18.6517 15.0849 18.609L24.0761 17.7013C24.4749 17.6587 24.7179 17.9389 24.6182 18.3166L22.3626 26.8761Z" fill="white"/>
<path d="M13.7887 17.0067C13.5893 17.3418 13.2092 17.3783 12.9475 17.0798L8.37406 11.8893C8.11239 11.5907 8.2183 11.2861 8.61085 11.2008L17.7578 9.31837C18.1503 9.23917 18.3061 9.44629 18.1005 9.78747L13.7887 17.0067Z" fill="white"/>
<path d="M21.1095 8.7092C20.7294 8.58126 20.7107 8.33148 21.0596 8.14262L23.0846 7.08258C23.4398 6.89982 23.9694 6.96074 24.2747 7.21661L28.518 10.8841C28.817 11.1461 28.7548 11.2496 28.3747 11.1278L21.1095 8.7092Z" fill="white"/>
<path d="M9.45155 10.1652C9.05902 10.2444 8.99047 10.1104 9.302 9.86062L13.215 6.72923C13.5266 6.47945 14.0686 6.42462 14.43 6.6013L17.3959 8.0756C17.7511 8.25228 17.7261 8.4655 17.3336 8.5447L9.45155 10.1652Z" fill="white"/>
<path d="M19.9759 7.75267C19.6207 7.93543 19.0412 7.94152 18.6861 7.76485L16.3682 6.61343C16.013 6.43676 16.0442 6.30273 16.4492 6.32101L21.4775 6.54642C21.8763 6.56469 21.9137 6.72918 21.5647 6.91804L19.9759 7.75267Z" fill="white"/>
<path d="M7.7075 10.0434C7.39597 10.2931 7.03458 10.3723 6.90373 10.2201C6.77288 10.0677 6.94734 9.79359 7.3025 9.61081L9.38985 8.52032C9.74502 8.33756 9.77615 8.38629 9.47084 8.63607L7.7075 10.0434Z" fill="white"/>
<path d="M5.0283 34.8386C5.18409 34.7106 5.52679 34.8386 5.80093 35.1309L7.32749 36.7821C7.59541 37.0744 7.5518 37.1171 7.23402 36.8856L5.32739 35.5026C5.0096 35.2711 4.87253 34.9725 5.0283 34.8386Z" fill="white"/>
<path d="M31.4217 12.6081C31.5775 12.4802 31.8578 12.6507 32.0447 12.998L33.1601 15.0389C33.347 15.3861 33.2972 15.4166 33.0416 15.1181L31.6024 13.394C31.3533 13.0955 31.2721 12.736 31.4217 12.6081Z" fill="white"/>
<path d="M30.5555 11.3044C30.8795 11.5359 31.0105 11.8344 30.8609 11.9684C30.7051 12.0964 30.3623 11.9684 30.0883 11.676L28.5617 10.025C28.2936 9.7326 28.3374 9.68994 28.655 9.92146L30.5555 11.3044Z" fill="white"/>
<path d="M4.28074 33.4127C4.5362 33.7173 4.61722 34.0708 4.46145 34.1988C4.30566 34.3267 4.02529 34.1561 3.83836 33.8089L2.72303 31.7678C2.5361 31.4206 2.58595 31.3902 2.84141 31.6888L4.28074 33.4127Z" fill="white"/>
<path d="M56.2099 16.6308C57.4459 17.328 58.4244 18.2724 59.1447 19.4551C59.8651 20.6467 60.2297 21.953 60.2297 23.374C60.2297 24.795 59.8651 26.1101 59.1447 27.3105C58.4244 28.5108 57.437 29.464 56.2099 30.1701C54.9735 30.8762 53.6217 31.2293 52.1365 31.2293C50.6599 31.2293 49.2992 30.8762 48.0631 30.1701C46.8268 29.464 45.8485 28.5108 45.128 27.3105C44.4076 26.1101 44.043 24.795 44.043 23.374C44.043 21.953 44.4076 20.6467 45.128 19.4551C45.8485 18.2636 46.8357 17.328 48.0631 16.6308C49.2992 15.9335 50.651 15.5893 52.1365 15.5893C53.6217 15.5804 54.9735 15.9335 56.2099 16.6308ZM48.8812 17.8047C47.8762 18.3784 47.0757 19.1551 46.4887 20.1348C45.8929 21.1145 45.5994 22.2001 45.5994 23.374C45.5994 24.5479 45.8929 25.6335 46.4887 26.6308C47.0757 27.6282 47.8762 28.4137 48.8812 28.9962C49.8863 29.5788 50.9803 29.87 52.1631 29.87C53.3282 29.87 54.4132 29.5788 55.4094 28.9962C56.4055 28.4137 57.2057 27.6282 57.7929 26.6308C58.3798 25.6335 58.6823 24.5479 58.6823 23.374C58.6823 21.9441 58.2375 20.6467 57.3571 19.4993C56.9302 18.9432 56.4055 18.449 55.8183 18.0606C54.7067 17.3192 53.4883 16.9485 52.1631 16.9485C50.9803 16.9485 49.8863 17.2309 48.8812 17.8047Z" fill="white"/>
<path d="M76.6296 30.7792L73.4989 26.0836C73.0274 26.1101 72.6628 26.1278 72.4139 26.1278H68.1538V30.382C68.1538 30.7792 67.8335 31.0969 67.4332 31.0969H67.3444C66.9441 31.0969 66.624 30.7792 66.624 30.382V15.7129H72.4139C74.3526 15.7129 75.8468 16.1542 76.9052 17.0456C77.9635 17.9371 78.4882 19.1904 78.4882 20.8232C78.4882 22.1031 78.1771 23.1622 77.5546 24.0183C76.9318 24.8656 76.0425 25.4658 74.8952 25.8012L77.8301 29.976C78.1681 30.4526 77.8214 31.1057 77.2342 31.1057C76.9943 31.1057 76.7631 30.9822 76.6296 30.7792ZM72.4139 24.7597C73.8902 24.7597 75.0287 24.4243 75.8291 23.7624C76.6296 23.0916 77.0299 22.1295 77.0299 20.8674C77.0299 19.6317 76.6296 18.6961 75.8291 18.0518C75.0287 17.4075 73.8902 17.0809 72.4139 17.0809H68.1538V24.7597H72.4139Z" fill="white"/>
<path d="M95.8227 16.7189C96.7031 17.3985 97.1389 18.3429 97.1389 19.5433C97.1389 20.4524 96.8811 21.2203 96.3741 21.8293C95.867 22.4471 95.1467 22.8531 94.2307 23.0385C95.3692 23.1885 96.2586 23.6033 96.89 24.2918C97.5213 24.9802 97.8416 25.854 97.8416 26.9131C97.8416 28.2371 97.3436 29.2609 96.3564 29.9935C95.3692 30.7261 93.9905 31.0968 92.2295 31.0968H85.666V15.6951H92.1673C93.7237 15.6951 94.9421 16.0305 95.8227 16.7189ZM94.6576 21.7763C95.2624 21.2997 95.5649 20.6201 95.5649 19.7375C95.5649 18.8901 95.2624 18.2282 94.6576 17.7604C94.0527 17.2926 93.199 17.0631 92.105 17.0808H87.2045V22.4912H92.105C93.199 22.4912 94.0527 22.2529 94.6576 21.7763ZM95.2002 28.952C95.9295 28.4313 96.2942 27.6987 96.2942 26.7631C96.2942 25.8364 95.9205 25.1214 95.1823 24.6095C94.444 24.0976 93.4125 23.8416 92.0961 23.8416H87.1956V29.7375H92.0961C93.4392 29.7375 94.4709 29.4727 95.2002 28.952Z" fill="white"/>
<path d="M111.165 17.3103C110.409 17.0985 109.698 16.9926 109.039 16.9926C107.972 16.9926 107.118 17.2044 106.478 17.6192C105.837 18.0341 105.517 18.6077 105.517 19.3227C105.517 19.9582 105.695 20.4701 106.051 20.8672C106.407 21.2644 106.843 21.5733 107.358 21.8028C107.874 22.0323 108.586 22.2794 109.484 22.5619C110.533 22.8708 111.378 23.1709 112.028 23.471C112.668 23.7711 113.219 24.2124 113.673 24.7772C114.127 25.351 114.349 26.11 114.349 27.0456C114.349 27.8664 114.118 28.5902 113.646 29.2257C113.184 29.8611 112.526 30.3466 111.681 30.6908C110.836 31.035 109.866 31.2115 108.773 31.2115C107.696 31.2115 106.638 30.9997 105.615 30.5761C104.788 30.2318 104.05 29.7994 103.41 29.2786C103.143 29.058 103.081 28.6872 103.241 28.3872C103.454 28.0076 103.952 27.9106 104.29 28.1753C104.833 28.599 105.428 28.9432 106.087 29.2168C107.003 29.5964 107.901 29.7905 108.79 29.7905C109.973 29.7905 110.916 29.5522 111.61 29.0756C112.303 28.599 112.65 27.9547 112.65 27.1515C112.65 26.5072 112.472 25.9776 112.117 25.5628C111.761 25.148 111.325 24.839 110.809 24.6184C110.293 24.3977 109.564 24.1418 108.639 23.8505C107.59 23.5239 106.745 23.2239 106.113 22.9414C105.473 22.659 104.939 22.2265 104.495 21.6616C104.05 21.0967 103.828 20.3553 103.828 19.4462C103.828 18.6695 104.05 17.9899 104.495 17.3986C104.939 16.816 105.562 16.3571 106.362 16.0482C107.163 15.7304 108.088 15.5715 109.137 15.5715C109.982 15.5715 110.827 15.6951 111.681 15.9422C112.268 16.1188 112.81 16.3306 113.308 16.5777C113.664 16.7543 113.806 17.1779 113.629 17.531L113.611 17.5751C113.433 17.9281 112.997 18.0605 112.641 17.8752C112.161 17.6457 111.672 17.4603 111.165 17.3103Z" fill="white"/>
</g>
</g>
<defs>
<clipPath id="clip0_83_1848">
<rect width="114" height="46" fill="white" transform="translate(0.368164 0.399658)"/>
</clipPath>
<clipPath id="clip1_83_1848">
<rect width="114" height="34.2" fill="white" transform="translate(0.368164 6.29956)"/>
</clipPath>
</defs>
</svg>
