<svg width="161" height="47" viewBox="0 0 161 47" fill="none" xmlns="http://www.w3.org/2000/svg">
<g clip-path="url(#clip0_83_1844)">
<path d="M24.3518 26.0612L37.7815 23.8483L24.3518 21.6353L32.2839 10.5762L21.2248 18.5083L19.0119 5.07861L16.8008 18.5083L5.73982 10.5762L13.6719 21.6353L0.242188 23.8483L13.6719 26.0612L5.73982 37.1203L16.8008 29.1883L19.0119 42.618L21.2248 29.1883L32.2839 37.1203L24.3518 26.0612Z" fill="white"/>
<path d="M93.1424 17.3092C91.9017 16.6879 90.4809 16.3782 88.8836 16.3782H82.3367V23.0189H85.1184V18.7319H88.7559C89.854 18.7319 90.8206 18.9421 91.6559 19.3626C92.4911 19.783 93.133 20.3817 93.5816 21.1607C94.0302 21.9377 94.2554 22.8406 94.2554 23.8673C94.2554 24.894 94.0302 25.7968 93.5816 26.5739C93.133 27.3509 92.4911 27.9497 91.6559 28.372C90.8206 28.7924 89.854 29.0027 88.7559 29.0027H85.1184V24.7025H82.3367V31.3564H88.8836C90.4809 31.3564 91.8999 31.0467 93.1424 30.4254C94.3831 29.8041 95.346 28.9276 96.0311 27.7939C96.7162 26.6602 97.0578 25.352 97.0578 23.8673C97.0578 22.3845 96.7162 21.0743 96.0311 19.9407C95.346 18.807 94.3831 17.9285 93.1424 17.3092ZM68.571 16.3782L61.8308 31.3564H64.6989L66.176 27.8896H73.6651L75.1629 31.3564H78.0722L71.3114 16.3782H68.571ZM67.1164 25.7067L69.9187 19.1598L72.7435 25.7067H67.1164ZM57.0052 24.6162C57.5532 23.8035 57.8292 22.8331 57.8292 21.7069C57.8292 20.6089 57.572 19.661 57.0596 18.8614C56.5453 18.0618 55.8077 17.4499 54.8448 17.022C53.8819 16.594 52.752 16.3801 51.4531 16.3801H45.291V23.0208H48.0727V18.7338H51.3255C52.538 18.7338 53.4577 18.9909 54.0865 19.5033C54.7134 20.0176 55.0287 20.7515 55.0287 21.7069C55.0287 22.6623 54.7153 23.4018 54.0865 23.9217C53.4577 24.4435 52.538 24.7025 51.3255 24.7025H45.291V31.3564H48.0727V26.9905H51.4531C51.7102 26.9905 51.9017 26.983 52.0312 26.9699L55.0907 31.3564H58.0863L54.6421 26.435C55.6669 26.0352 56.4552 25.4289 57.0052 24.6162ZM102.313 31.3564H105.095V16.3782H102.313V31.3564ZM116.107 16.3782L109.367 31.3564H112.235L113.712 27.8896H121.201L122.699 31.3564H125.608L118.847 16.3782H116.107ZM114.652 25.7067L117.455 19.1598L120.28 25.7067H114.652ZM147.531 16.3782V18.7319H152.496V31.3564H155.278V18.7319H160.242V16.3782H147.531ZM140.421 26.5213L132.163 16.3782H129.873V31.3564H132.634V21.2132L140.892 31.3564H143.182V16.3782H140.421V26.5213Z" fill="white"/>
</g>
<defs>
<clipPath id="clip0_83_1844">
<rect width="160" height="46" fill="white" transform="translate(0.242188 0.848389)"/>
</clipPath>
</defs>
</svg>
