<svg width="145" height="47" viewBox="0 0 145 47" fill="none" xmlns="http://www.w3.org/2000/svg">
<g clip-path="url(#clip0_84_2063)">
<path fill-rule="evenodd" clip-rule="evenodd" d="M22.5727 27.1076L22.5721 27.1065H22.5733L22.5727 27.1076ZM22.5727 27.1076L14.9495 39.7193H30.1959L22.5727 27.1076ZM15.6837 17.348L15.6843 17.3471H15.6831L15.6837 17.348ZM0.743164 39.5943L15.6837 17.348L19.7043 23.6085L9.1338 39.5943H0.743164ZM29.4593 17.348L29.4599 17.3471H29.4586L29.4593 17.348ZM29.4593 17.348L25.4387 23.6085L36.0092 39.5943H44.3998L29.4593 17.348ZM22.5721 8.2373L26.9157 14.3687V14.37L22.5721 21.045L18.2284 14.37L22.5721 8.2373ZM54.5563 39.0583C55.4856 39.4518 56.5283 39.6486 57.6843 39.6486C58.5306 39.6486 59.3239 39.5389 60.0644 39.3194C60.8048 39.1075 61.4547 38.7972 62.0138 38.3885C62.5728 37.9724 63.0074 37.4577 63.3171 36.8448C63.6345 36.2319 63.7931 35.5319 63.7931 34.7448C63.7931 33.9577 63.6496 33.307 63.3625 32.7923C63.0754 32.2702 62.7127 31.8539 62.2744 31.5437C61.8362 31.2258 61.3829 30.9799 60.9144 30.8059C60.4535 30.6319 60.0455 30.4956 59.6904 30.3973L56.585 29.5005C56.1845 29.3869 55.7727 29.2432 55.3496 29.0691C54.9341 28.8876 54.5827 28.6453 54.2956 28.3426C54.0085 28.0324 53.865 27.6275 53.865 27.1281C53.865 26.6211 54.0236 26.1745 54.341 25.7886C54.6583 25.3951 55.0854 25.0886 55.6217 24.8691C56.1581 24.6496 56.7588 24.5437 57.4237 24.5512C58.1188 24.5589 58.7573 24.6951 59.339 24.96C59.9209 25.2173 60.4043 25.5881 60.7897 26.0724C61.1827 26.5491 61.4357 27.1204 61.5491 27.7865L63.6912 27.4118C63.4947 26.4204 63.1093 25.5691 62.5351 24.8578C61.9684 24.1464 61.2507 23.6016 60.3817 23.2232C59.5204 22.8372 58.5419 22.6405 57.4463 22.6329C56.3659 22.6254 55.395 22.8031 54.5336 23.1664C53.6723 23.5297 52.9885 24.0557 52.4823 24.7442C51.9836 25.4254 51.7342 26.2503 51.7342 27.2188C51.7342 27.8243 51.8325 28.3502 52.0289 28.7967C52.2253 29.2356 52.4898 29.614 52.8223 29.9318C53.1548 30.2421 53.5325 30.5032 53.9556 30.715C54.3797 30.9198 54.8193 31.0906 55.2703 31.2258L59.4298 32.4632C59.7244 32.5464 60.0078 32.6523 60.2798 32.781C60.5518 32.9097 60.7935 33.0686 61.0051 33.2577C61.2242 33.4394 61.3942 33.6627 61.515 33.9274C61.6435 34.1848 61.7077 34.495 61.7077 34.8583C61.7077 35.4486 61.5338 35.9593 61.1864 36.3907C60.8389 36.8221 60.3666 37.155 59.7697 37.3896C59.1804 37.6167 58.5192 37.7301 57.7864 37.7301C56.653 37.7301 55.667 37.4426 54.8282 36.8674C53.9972 36.2848 53.4494 35.4788 53.1849 34.4496L51.0996 34.7788C51.2809 35.7778 51.67 36.6443 52.2669 37.3783C52.8713 38.1048 53.6346 38.6647 54.5563 39.0583ZM70.981 32.5086V39.3079H73.021V32.5086L78.5065 22.9621H76.1605L72.0011 30.1928L67.8303 22.9621H65.4842L70.981 32.5086ZM81.6735 22.9621V39.3079H83.589V27.4005L89.131 39.3079H90.2078L95.7498 27.4005V39.2966H97.6651V22.9621H95.8065L89.675 35.9821L83.5095 22.9621H81.6735ZM102.43 22.9621V39.3079H104.345V27.4005L109.887 39.3079H110.964L116.506 27.4005V39.2966H118.421V22.9621H116.563L110.431 35.9821L104.266 22.9621H102.43ZM123.413 22.9621V39.3079H125.43V22.9621H123.413ZM132.991 38.5701C134.124 39.2891 135.502 39.6486 137.127 39.6486C138.759 39.6486 140.142 39.2891 141.275 38.5701C142.408 37.8513 143.27 36.8523 143.859 35.5735C144.448 34.2945 144.743 32.8151 144.743 31.1351C144.743 29.455 144.448 27.9756 143.859 26.6967C143.27 25.4177 142.408 24.4189 141.275 23.6999C140.142 22.9811 138.759 22.6216 137.127 22.6216C135.502 22.6216 134.124 22.9809 132.991 23.6999C131.857 24.4189 130.991 25.4177 130.395 26.6967C129.805 27.9756 129.511 29.4552 129.511 31.1351C129.511 32.815 129.805 34.2945 130.395 35.5735C130.991 36.8523 131.857 37.8512 132.991 38.5701ZM140.164 36.9016C139.355 37.454 138.344 37.7264 137.127 37.7188C135.91 37.7113 134.894 37.4312 134.078 36.8788C133.27 36.3188 132.661 35.5469 132.253 34.5631C131.845 33.5794 131.646 32.4367 131.653 31.1351C131.66 29.8259 131.868 28.6756 132.276 27.6842C132.684 26.6929 133.289 25.9211 134.09 25.3686C134.898 24.8161 135.91 24.5437 137.127 24.5512C138.344 24.5589 139.355 24.8388 140.164 25.3913C140.98 25.9437 141.589 26.7118 141.989 27.6956C142.397 28.6794 142.602 29.8259 142.602 31.1351C142.602 32.4367 142.397 33.5832 141.989 34.5745C141.589 35.5659 140.98 36.3416 140.164 36.9016Z" fill="white"/>
</g>
<defs>
<clipPath id="clip0_84_2063">
<rect width="144" height="46" fill="white" transform="translate(0.743164 0.978271)"/>
</clipPath>
</defs>
</svg>
