<svg width="129" height="47" viewBox="0 0 129 47" fill="none" xmlns="http://www.w3.org/2000/svg">
<g clip-path="url(#clip0_83_1846)">
<path d="M30.2022 17.5034L19.2365 36.4968C18.9049 37.0696 18.4286 37.5451 17.8553 37.8758C17.2818 38.2063 16.6316 38.3804 15.9698 38.3804C15.308 38.3804 14.6577 38.2063 14.0844 37.8758C13.511 37.5451 13.0346 37.0696 12.7031 36.4968L10.7807 33.1697C10.7746 33.1614 10.7719 33.1511 10.7734 33.1409C10.7748 33.1307 10.7803 33.1214 10.7885 33.1152C10.7968 33.1091 10.8071 33.1064 10.8174 33.1078C10.8276 33.1093 10.8368 33.1148 10.8431 33.123C11.1859 33.4616 11.6017 33.7171 12.0586 33.8702C12.5155 34.0234 13.0013 34.0701 13.479 34.0066C13.9566 33.9431 14.4134 33.7713 14.8145 33.5041C15.2154 33.237 15.5501 32.8817 15.7927 32.4654L24.9723 16.55C25.2143 16.1298 25.3564 15.6596 25.3874 15.1757C25.4185 14.6918 25.3378 14.2072 25.1516 13.7595C24.9654 13.3118 24.6786 12.9129 24.3135 12.5938C23.9483 12.2747 23.5147 12.044 23.0461 11.9194C23.0358 11.9194 23.0259 11.9153 23.0186 11.908C23.0113 11.9007 23.0072 11.8908 23.0072 11.8805C23.0072 11.8701 23.0113 11.8602 23.0186 11.853C23.0259 11.8457 23.0358 11.8416 23.0461 11.8416H26.9374C27.5996 11.8423 28.25 12.0172 28.8233 12.3488C29.3964 12.6803 29.8724 13.1569 30.2032 13.7306C30.534 14.3043 30.708 14.9549 30.7079 15.6171C30.7077 16.2793 30.5333 16.9299 30.2022 17.5034ZM17.2208 11.8416H13.419C13.4113 11.8441 13.4045 11.8491 13.3997 11.8557C13.3948 11.8623 13.3923 11.8703 13.3923 11.8785C13.3923 11.8867 13.3948 11.8947 13.3997 11.9013C13.4045 11.908 13.4113 11.9129 13.419 11.9155C13.6751 12.0144 13.9068 12.1674 14.0983 12.3641C14.2898 12.5608 14.4365 12.7965 14.5285 13.0551C14.6205 13.3137 14.6556 13.5892 14.6313 13.8626C14.607 14.136 14.5241 14.401 14.388 14.6394L8.84678 24.2236C8.70362 24.4667 8.50842 24.675 8.2752 24.8336C8.04198 24.9923 7.77652 25.0974 7.49788 25.1413C7.21926 25.1851 6.93437 25.1668 6.66366 25.0876C6.39295 25.0083 6.14316 24.87 5.93221 24.6828C5.92602 24.6745 5.9168 24.6691 5.90658 24.6677C5.89636 24.6662 5.88599 24.6688 5.87773 24.675C5.86947 24.6812 5.86401 24.6904 5.86256 24.7006C5.86109 24.7109 5.86375 24.7213 5.86995 24.7295L7.81559 28.1071C8.03404 28.4861 8.34849 28.801 8.72727 29.0198C9.10607 29.2388 9.53587 29.354 9.97331 29.354C10.4108 29.354 10.8406 29.2388 11.2193 29.0198C11.5981 28.801 11.9126 28.4861 12.131 28.1071L19.3805 15.5772C19.5992 15.1984 19.7143 14.7687 19.7142 14.3313C19.714 13.8938 19.5987 13.4642 19.3798 13.0855C19.1609 12.7068 18.8461 12.3925 18.4671 12.1741C18.0881 11.9557 17.6583 11.841 17.2208 11.8416ZM4.02548 11.8416C3.37668 11.8416 2.74246 12.0339 2.20301 12.3944C1.66356 12.7548 1.2431 13.2672 0.994821 13.8666C0.746539 14.466 0.681576 15.1255 0.80815 15.7619C0.934723 16.3982 1.24715 16.9827 1.70591 17.4415C2.16468 17.9002 2.74919 18.2127 3.38551 18.3392C4.02184 18.4658 4.68141 18.4008 5.28081 18.1526C5.88022 17.9043 6.39254 17.4838 6.75299 16.9444C7.11344 16.4049 7.30583 15.7707 7.30583 15.1219C7.30634 14.691 7.22184 14.2642 7.05717 13.866C6.8925 13.4677 6.65089 13.1059 6.34618 12.8012C6.04147 12.4965 5.67964 12.2549 5.28142 12.0902C4.88319 11.9255 4.4564 11.841 4.02548 11.8416Z" fill="white"/>
<path d="M56.5319 17.7939H53.2554L48.7775 28.4535L44.3215 17.7939H41.0449L47.3577 32.429H50.2192L56.5319 17.7939Z" fill="white"/>
<path d="M72.6642 29.7422H64.5166V26.422H71.987V23.779H64.5166V20.4807H72.6205V17.7939H61.5459V32.429H72.6642V29.7422Z" fill="white"/>
<path d="M92.2316 17.7939H89.261V27.4487L81.1571 17.7939H78.667V32.429H81.6377V23.0363L89.7414 32.429H92.2316V17.7939Z" fill="white"/>
<path d="M111.164 17.7939H108.193V25.876C108.193 27.0992 107.888 28.0821 107.276 28.8249C106.664 29.5675 105.856 29.917 104.874 29.917C103.825 29.917 102.973 29.5675 102.34 28.8249C101.706 28.0821 101.4 27.0992 101.4 25.876V17.7939H98.4297V25.876C98.4297 27.9293 99.019 29.5894 100.199 30.8563C101.379 32.1231 102.93 32.7567 104.874 32.7567C106.752 32.7567 108.281 32.1231 109.439 30.8563C110.575 29.5894 111.164 27.9293 111.164 25.876V17.7939Z" fill="white"/>
<path d="M122.739 17.4658C121.035 17.4658 119.681 17.8808 118.676 18.7109C117.671 19.5409 117.169 20.6112 117.169 21.9218C117.169 24.1936 118.436 25.5915 121.013 26.1158L124.115 26.7056C124.726 26.8366 125.163 27.0332 125.425 27.2735C125.688 27.5356 125.818 27.8632 125.818 28.3001C125.818 28.8462 125.578 29.283 125.142 29.6325C124.683 29.9821 124.05 30.1568 123.219 30.1568C121.407 30.1568 120.314 29.3705 119.943 27.7759L116.819 28.4093C116.994 29.8073 117.65 30.8995 118.785 31.6422C119.921 32.3848 121.319 32.7562 122.936 32.7562C124.683 32.7562 126.081 32.3411 127.152 31.5111C128.2 30.6811 128.746 29.5671 128.746 28.1472C128.746 27.0332 128.397 26.1158 127.719 25.4168C127.042 24.7178 126.103 24.2155 124.902 23.9533L121.756 23.3199C120.773 23.1451 120.293 22.6427 120.293 21.8345C120.293 21.3321 120.511 20.8952 120.948 20.5457C121.385 20.1962 121.953 20.0215 122.673 20.0215C123.416 20.0215 124.05 20.2399 124.596 20.655C125.12 21.07 125.448 21.616 125.557 22.2932L128.527 21.6816C128.244 20.3928 127.588 19.3662 126.54 18.6017C125.491 17.859 124.224 17.4658 122.739 17.4658Z" fill="white"/>
</g>
<defs>
<clipPath id="clip0_83_1846">
<rect width="128.001" height="46" fill="white" transform="translate(0.745117 0.848389)"/>
</clipPath>
</defs>
</svg>
