<svg width="71" height="47" viewBox="0 0 71 47" fill="none" xmlns="http://www.w3.org/2000/svg">
<g clip-path="url(#clip0_83_1847)">
<path d="M29.5377 28.1441C28.3057 28.1617 27.0918 27.8464 26.0241 27.2315C25.0313 26.6519 24.212 25.8168 23.6513 24.8131C23.0446 23.7421 22.7299 22.5304 22.7387 21.2995C22.7269 19.9905 22.959 18.6906 23.4232 17.4666C23.8523 16.3678 24.4873 15.3611 25.294 14.5006C26.1021 13.6385 27.0812 12.9547 28.1688 12.4928C29.2737 11.9939 30.4701 11.7298 31.6823 11.7171C32.9292 11.6958 34.1588 12.0111 35.2415 12.6297C36.2277 13.203 37.0337 14.0407 37.5687 15.0481C38.1668 16.203 38.4649 17.4896 38.4357 18.7898H34.4202C34.4094 18.1254 34.2537 17.4713 33.9639 16.8734C33.7341 16.386 33.37 15.9744 32.9144 15.687C32.4137 15.4048 31.8462 15.2629 31.2717 15.2763C30.6338 15.2663 30.0045 15.4236 29.4464 15.7326C28.9071 16.0405 28.4403 16.4606 28.0775 16.9646C27.6717 17.5167 27.3631 18.134 27.1649 18.7898C26.9411 19.5605 26.8335 20.3602 26.8455 21.1626C26.819 21.7915 26.9442 22.4175 27.2105 22.9879C27.4547 23.4798 27.8348 23.8915 28.3057 24.1743C28.7894 24.4571 29.3425 24.5993 29.9027 24.5849C30.8231 24.5998 31.7166 24.2749 32.4124 23.6723C33.1696 22.9836 33.7222 22.0994 34.0095 21.117H38.0706C37.7391 22.4727 37.1335 23.7461 36.291 24.8587C35.5195 25.8816 34.5194 26.7098 33.3707 27.2772C32.1922 27.8551 30.8958 28.1519 29.5833 28.1441H29.5377ZM48.7939 27.8247H52.855L50.0715 12.0365H45.691L37.158 27.8247H41.4473L42.9531 24.8131H48.3376L48.7939 27.8247ZM44.5958 21.6646L47.1968 16.5083L47.9269 21.6646H44.5958ZM60.9773 27.8247H54.8171L57.6006 12.0365H63.3957C64.6216 12.0221 65.8309 12.3205 66.9093 12.9035C67.8939 13.4328 68.7146 14.2219 69.2821 15.185C69.8916 16.2216 70.2072 17.4048 70.1947 18.6073C70.1924 19.8749 69.9445 21.1301 69.4646 22.3034C69.0407 23.3953 68.3966 24.3882 67.5723 25.2204C66.748 26.0525 65.7612 26.7061 64.6734 27.1403C63.4973 27.6056 62.242 27.8381 60.9773 27.8247ZM60.9773 15.5501L59.4258 24.3112H61.3423C62.0029 24.3105 62.656 24.1705 63.2588 23.9005C63.8364 23.6528 64.351 23.2785 64.7646 22.8054C65.1808 22.2936 65.491 21.7042 65.6773 21.0714C65.9193 20.3351 66.0425 19.5649 66.0423 18.7898C66.0507 18.1868 65.9096 17.5911 65.6316 17.0559C65.3719 16.5831 64.9738 16.201 64.4909 15.9607C63.9394 15.6825 63.3289 15.5416 62.7113 15.5501H60.9773Z" fill="white"/>
<path d="M4.34771 41.9701L2.29433 37.3157L1.47297 41.9701H0.195312L1.38171 35.3536H2.8419L4.80402 39.8254L5.57974 35.3536H6.8574L5.71663 41.9701H4.34771ZM15.2535 40.7837L15.0709 41.9701H10.6904L11.8768 35.3536H16.1661L15.9836 36.54H13.0632L12.835 38.0002H15.436L15.2535 39.141H12.6069L12.3331 40.7837H15.2535ZM22.6456 41.9701H21.2767L22.2806 36.5857H20.2272L20.4554 35.3536H25.8398L25.6116 36.5857H23.6039L22.6456 41.9701ZM34.0533 41.9701L33.6883 37.3157L31.6805 41.9701H30.266L29.8097 35.3536H31.133L31.3611 39.9167L33.3232 35.3536H34.6465L34.9659 39.9167L36.7912 35.3536H38.2057L35.3766 41.9701H34.0533ZM44.4571 42.107C43.9308 42.1303 43.4086 42.0037 42.9513 41.7419C42.5343 41.5014 42.188 41.1551 41.9475 40.7381C41.6945 40.2773 41.5685 39.7577 41.5824 39.2322C41.5859 38.6844 41.6943 38.1422 41.9018 37.6352C42.0887 37.1593 42.3679 36.7251 42.7232 36.3575C43.0758 36.0053 43.4945 35.7262 43.9552 35.5361C44.4296 35.3265 44.9424 35.2177 45.461 35.2167C45.972 35.202 46.4772 35.3283 46.9212 35.5818C47.3383 35.8223 47.6845 36.1686 47.9251 36.5857C48.178 37.0464 48.304 37.566 48.2901 38.0915C48.2878 38.6395 48.1793 39.1818 47.9707 39.6885C47.7954 40.1597 47.5321 40.5933 47.195 40.9662C46.8615 41.3317 46.4581 41.6265 46.0086 41.8332C45.5163 42.0322 44.9878 42.1255 44.4571 42.107ZM44.5484 40.9206C44.8664 40.9179 45.1792 40.8397 45.461 40.6924C45.7594 40.553 46.024 40.3506 46.2367 40.0992C46.4438 39.8257 46.5985 39.5163 46.6931 39.1866C46.8083 38.8484 46.8699 38.4943 46.8756 38.1371C46.8888 37.8227 46.8262 37.5096 46.6931 37.2245C46.5699 36.9792 46.3801 36.7736 46.1455 36.6313C45.8984 36.48 45.6138 36.401 45.3241 36.4031C45.0061 36.4058 44.6934 36.484 44.4115 36.6313C44.1296 36.7762 43.8809 36.9782 43.6814 37.2245C43.4573 37.4938 43.2869 37.8036 43.1795 38.1371C43.0642 38.4753 43.0026 38.8294 42.997 39.1866C42.9819 39.5012 43.0446 39.8146 43.1795 40.0992C43.3026 40.3445 43.4924 40.5501 43.7271 40.6924C43.9742 40.8437 44.2587 40.9227 44.5484 40.9206ZM53.6746 41.9701H52.3056L53.492 35.3536H56.0017C56.4092 35.3404 56.8146 35.4183 57.1881 35.5818C57.4847 35.725 57.7369 35.9457 57.9182 36.2206C58.1101 36.5193 58.2057 36.8697 58.192 37.2245C58.2077 37.5686 58.1453 37.9118 58.0095 38.2284C57.8579 38.5193 57.6388 38.7696 57.3706 38.9585C57.0527 39.1753 56.6966 39.3301 56.3211 39.4148L57.6444 41.9701H56.1386L54.9522 39.6429H54.0852L53.6746 41.9701ZM54.6784 36.4944L54.3134 38.4565H55.4085C55.6705 38.4749 55.9337 38.4439 56.1842 38.3653C56.3724 38.2747 56.5307 38.1322 56.6406 37.9546C56.7761 37.7852 56.8558 37.5779 56.8687 37.3614C56.8705 37.2371 56.8425 37.1142 56.7869 37.003C56.7313 36.8918 56.6498 36.7956 56.5493 36.7225C56.3082 36.558 56.0194 36.4778 55.7279 36.4944H54.6784ZM63.5308 41.9701H62.1619L63.3483 35.3536H64.7172L64.2153 38.274L66.9531 35.3536H68.5958L65.4017 38.6847L67.3638 41.9701H65.8123L64.0784 38.9585L63.5308 41.9701Z" fill="white"/>
<path d="M7.13394 30.8362H0.334961L8.68539 19.1091L4.44173 8.11206H10.5106L13.3854 15.8693L18.4504 8.11206H25.295L16.8077 19.5654L21.3251 30.8362H15.2106L12.0621 22.8964L7.13394 30.8362Z" fill="white"/>
</g>
<defs>
<clipPath id="clip0_83_1847">
<rect width="70" height="46" fill="white" transform="translate(0.195312 0.848389)"/>
</clipPath>
</defs>
</svg>
